<?xml version="1.0" encoding="utf-8"?>
<!-- Generator: Adobe Illustrator 16.0.0, SVG Export Plug-In . SVG Version: 6.00 Build 0)  -->
<!DOCTYPE svg PUBLIC "-//W3C//DTD SVG 1.1//EN" "http://www.w3.org/Graphics/SVG/1.1/DTD/svg11.dtd">
<svg version="1.1" id="Ebene_1" xmlns="http://www.w3.org/2000/svg" xmlns:xlink="http://www.w3.org/1999/xlink" x="0px" y="0px"
	 width="467.885px" height="103.902px" viewBox="0 0 467.885 103.902" enable-background="new 0 0 467.885 103.902"
	 xml:space="preserve">
<g>
	<g>
		<path d="M108.023,78.568V61.491h-8.423v17.077H82.911V30.14h16.689v18.093h8.423V30.14h16.455v48.429H108.023z"/>
		<path d="M147.089,55.641v-1.402c0-0.78-0.469-1.404-1.482-1.404c-2.886,0-8.345,1.092-13.646,2.418l-2.418-12.322
			c6.551-1.56,13.023-2.65,20.042-2.65c9.749,0,13.336,3.587,13.336,10.995c0,4.679-0.468,10.293-0.468,15.597
			c0,1.482,1.091,1.795,3.742,1.795l-1.481,10.372c-2.339,0.155-4.133,0.311-6.316,0.311c-3.432,0-6.55-1.014-8.267-3.041h-0.546
			c-2.105,1.715-4.836,3.041-9.514,3.041c-7.486,0-11.387-4.365-11.387-11.308C128.684,58.762,135.392,56.501,147.089,55.641z
			 M147.557,66.949v-2.964c-2.729,0.391-4.055,1.171-4.055,3.119c0,1.405,0.545,2.185,1.792,2.185
			C146.776,69.289,147.557,68.51,147.557,66.949z"/>
		<path d="M187.09,67.574c2.262,0,4.758-0.391,7.877-1.016l1.715,10.841c-4.133,1.169-7.252,1.949-11.542,1.949
			c-11.774,0-17.468-7.408-17.468-18.793c0-11.621,5.771-20.276,17.703-20.276c4.913,0,8.188,0.701,11.932,2.104l-1.639,12.321
			c-2.807-1.013-6.238-2.184-8.578-2.184c-2.496,0-3.119,2.809-3.119,7.488C183.971,65.077,184.517,67.574,187.09,67.574z"/>
		<path d="M220.619,78.568l-4.522-12.243h-0.312v12.243h-15.986V31.831l15.986-3.249v25.734h0.312l5.459-9.854l16.923-3.249
			l-8.733,19.418c2.729,6.006,5.692,12.01,8.423,17.937H220.619z"/>
		<path d="M275.284,55.33c0,2.262-0.234,5.068-0.625,8.735h-19.573c0.234,3.039,2.027,4.21,5.146,4.21
			c2.73,0,5.927-0.625,11.854-1.638l1.326,10.528c-5.303,1.402-9.981,2.183-15.44,2.183c-12.634,0-19.263-7.486-19.263-19.263
			c0-12.633,6.395-19.807,19.34-19.807C271.15,40.279,275.284,46.284,275.284,55.33z M254.774,56.967h5.614V55.72
			c0-1.872-0.623-2.886-2.729-2.886C255.32,52.834,254.774,54.394,254.774,56.967z"/>
		<path d="M295.164,78.568H279.1V41.214h13.882l0.468,2.497h0.312c2.418-2.263,5.07-3.043,11.386-3.043l-0.468,12.945h-5.302
			c-3.042,0-4.213,0.858-4.213,4.055v9.259V78.568z"/>
		<path d="M341.642,30.921l-1.793,13.726c-5.459-1.092-10.139-1.951-12.634-1.951c-2.028,0-3.197,0.47-3.197,1.872
			c0,1.171,1.247,1.404,3.041,2.183c5.225,2.342,15.909,4.991,15.909,16.066c0,10.685-6.239,16.532-18.092,16.532
			c-6.473,0-11.386-0.78-16.612-2.104l1.094-13.179c6.783,1.715,10.838,2.648,14.114,2.648c1.638,0,2.418-0.545,2.418-1.713
			c0-1.171-1.014-1.639-2.652-2.418c-5.225-2.497-16.376-4.835-16.376-16.845c0-10.372,6.551-16.377,17.857-16.377
			C330.803,29.361,336.34,29.984,341.642,30.921z"/>
		<path d="M347.953,69.132V52.211h-4.133V41.683h4.913l1.014-6.942h14.427v6.942h7.097v10.528h-7.174v14.427
			c0,0.702,0.311,1.013,0.936,1.013c1.482,0,3.119-0.155,6.16-0.311l-0.468,11.229c-3.899,0.391-7.174,0.78-10.996,0.78
			C351.93,79.349,347.953,76.854,347.953,69.132z"/>
		<path d="M410.885,59.229c0,14.348-5.459,20.119-18.482,20.119c-13.257,0-18.95-5.927-18.95-19.573
			c0-13.804,6.005-19.496,18.95-19.496C405.192,40.279,410.885,45.972,410.885,59.229z M389.751,58.917v1.872
			c0,6.315,0.155,7.877,2.729,7.877c1.949,0,2.262-1.482,2.262-7.488v-2.184c0-5.691-0.155-7.253-2.495-7.253
			C389.984,51.741,389.751,53.303,389.751,58.917z"/>
		<path d="M414.546,31.831l15.987-3.249v36.729c0,1.482,0.858,2.105,2.886,2.105l-1.171,11.932h-6.394
			c-7.565,0-11.309-3.274-11.309-10.449V31.831z"/>
		<path d="M435.521,78.568l-0.389-8.812l12.243-16.299h-12.633V41.214h32.675l0.468,8.189l-11.932,17.546h10.619l-4.873,11.619
			H435.521z"/>
	</g>
	<path fill="#020203" d="M58.075,65.258c5.812,0,10.544-4.729,10.544-10.542c-0.002-5.814-4.732-10.544-10.546-10.544
		c-4.993,0-9.177,3.493-10.26,8.162v0.878h-2.52v-0.878c0,0-0.001,0.002-0.001,0.006c-1.092-4.953-5.508-8.672-10.784-8.672
		c-5.037,0-9.29,3.397-10.611,8.02h-7.62c8.729-7.982,6.869-21.437,6.869-21.437h39.72V0.263l-8.022,11.179V0l-8.073,11.049V0
		l-7.052,10.523H0v19.728v27.188c1.698-0.05,3.272-0.207,4.733-0.45v17.454c0,0,6.926,5.754,18.585,13.658h-0.002l26.136,15.802
		L59.67,82.995c0.527-0.926,0.98-1.864,1.364-2.788l0.016-0.034h-0.002c1.318-3.204,1.818-6.22,1.818-7.965V69.04l-6.054,9.145
		H40.245L14.03,62.689l-2.956-7.588c0.271-0.122,0.521-0.256,0.779-0.386h11.614c0,6.088,4.955,11.045,11.045,11.045
		c5.274,0,9.688-3.719,10.781-8.668v-1.117h2.52v1.117C48.894,61.763,53.08,65.258,58.075,65.258z M34.513,63.759
		c-4.988,0-9.046-4.059-9.046-9.043c0-4.99,4.058-9.048,9.046-9.048s9.046,4.058,9.046,9.048
		C43.557,59.7,39.501,63.759,34.513,63.759z M58.073,46.172c4.712,0,8.544,3.831,8.544,8.544c0,4.712-3.832,8.543-8.544,8.543
		c-4.281,0-7.826-3.17-8.438-7.283h0.021v-2.64C50.318,49.279,53.834,46.172,58.073,46.172z"/>
</g>
</svg>
