<svg xmlns="http://www.w3.org/2000/svg" xmlns:xlink="http://www.w3.org/1999/xlink" viewBox="68 58 650.872 415.822">
  <defs>
    <style>
      .cls-1 {
        fill: none;
      }

      .cls-2 {
        clip-path: url(#clip-path);
      }

      .cls-3 {
        fill: #fed74c;
      }

      .cls-4 {
        fill: #fff;
      }

      .cls-5 {
        clip-path: url(#clip-path-2);
      }

      .cls-6 {
        fill: #2b2e34;
      }
    </style>
    <clipPath id="clip-path">
      <path id="Inno" class="cls-1" d="M0-84.124H650.872V-499.945H0Z" transform="translate(0 499.945)"/>
    </clipPath>
    <clipPath id="clip-path-2">
      <path id="Path_12" data-name="Path 12" class="cls-1" d="M0-84.124H650.871V-499.945H0Z" transform="translate(0 499.945)"/>
    </clipPath>
  </defs>
  <g id="Symbol_1_1" data-name="Symbol 1 – 1" transform="translate(24 5)">
    <g id="Group_8" data-name="Group 8" class="cls-2" transform="translate(44 53)">
      <g id="Group_4" data-name="Group 4" transform="translate(35.4 134.141)">
        <path id="Path_4" data-name="Path 4" class="cls-3" d="M-10.384-30.715V-182.541H-52.876v39.253l17.4-17.4a1.079,1.079,0,0,1,1.526,0,1.079,1.079,0,0,1,0,1.526l-18.922,18.923v.042l7.972-7.972a1.079,1.079,0,0,1,1.526,0,1.079,1.079,0,0,1,0,1.526l-9.5,9.5V-72.8l2.415-1.544a1.075,1.075,0,0,1,1.49.328,1.076,1.076,0,0,1-.327,1.49l-3.578,2.288v23.359l-8.519,8.519a1.079,1.079,0,0,0,0,1.526,1.072,1.072,0,0,0,.764.318,1.071,1.071,0,0,0,.763-.318l6.992-6.992v13.111Z" transform="translate(61.711 182.541)"/>
      </g>
      <g id="Group_5" data-name="Group 5" transform="translate(89.217 159.654)">
        <path id="Path_5" data-name="Path 5" class="cls-3" d="M-14.885-9.278V43.083L-24.4,52.6a1.079,1.079,0,0,0,0,1.526,1.079,1.079,0,0,0,.764.315,1.078,1.078,0,0,0,.763-.315l7.991-7.994V71.172h12.37L-6.891,75.55a1.079,1.079,0,0,0,0,1.526,1.078,1.078,0,0,0,.763.315,1.119,1.119,0,0,0,.293-.057l22.7-22.7a1.08,1.08,0,0,1,1.526,1.527L3.38,71.172H26.312v-89q0-15.939-9.8-26.625c-.236-.259-.49-.477-.73-.725l-1.162,1.162a1.076,1.076,0,0,1-.763.316,1.079,1.079,0,0,1-.764-.316,1.08,1.08,0,0,1,0-1.527L14.249-46.7A31.693,31.693,0,0,0-7.958-55.141a31.252,31.252,0,0,0-15.52,3.887A37.5,37.5,0,0,0-35.872-39.465l-4.019-12.826H-75.259v17.007l6.161-6.161a1.079,1.079,0,0,1,1.526,0,1.079,1.079,0,0,1,0,1.526L-80.653-26.838a.978.978,0,0,1-.233.155l-7.259,7.26a1.079,1.079,0,0,0,0,1.526,1.076,1.076,0,0,0,.763.316,1.079,1.079,0,0,0,.764-.316l11.36-11.36V71.172h40.681V1.864q0-10.238,3.238-15.94t8.683-5.7q7.773,0,7.772,10.494" transform="translate(88.461 55.141)"/>
      </g>
      <g id="Group_6" data-name="Group 6" transform="translate(218.904 159.654)">
        <path id="Path_6" data-name="Path 6" class="cls-3" d="M-44.727-15.531q-2.131.469-4.248.874a1.075,1.075,0,0,1-.205.02,1.081,1.081,0,0,1-1.057-.877,1.079,1.079,0,0,1,.857-1.263q2.086-.4,4.186-.863a1.082,1.082,0,0,1,1.288.82,1.083,1.083,0,0,1-.82,1.289M-53.246-13.9q-2.153.351-4.283.644a1.12,1.12,0,0,1-.149.011,1.08,1.08,0,0,1-1.066-.933,1.076,1.076,0,0,1,.92-1.217q2.1-.288,4.234-.635a1.08,1.08,0,0,1,1.238.894,1.078,1.078,0,0,1-.893,1.237m-7.09-36.739L-82.366-28.607c0,.321.015.621.015.95a92.235,92.235,0,0,1-.943,14.06c1.353-.017,2.724-.047,4.121-.091h.032a1.079,1.079,0,0,1,1.08,1.047,1.081,1.081,0,0,1-1.045,1.111q-2.2.069-4.326.095h-.016a1.027,1.027,0,0,1-.23-.045,35.566,35.566,0,0,1-2.308,7.668l2.3-2.3a1.08,1.08,0,0,1,1.526,0,1.08,1.08,0,0,1,0,1.526L-95.248,8.5a1.075,1.075,0,0,1-.762.315,1.084,1.084,0,0,1-.764-.315,1.08,1.08,0,0,1,0-1.526l2.813-2.813a12.544,12.544,0,0,1-3.809.571q-7.645,0-11.463-8.163t-3.821-24.358q0-16.452,3.886-24.682t11.532-8.228q7.637,0,11.464,8.228,3.345,7.217,3.763,20.852l20.548-20.55a1.079,1.079,0,0,1,1.526,0,1.076,1.076,0,0,1,0,1.526m-1.5,37.913q-2.173.243-4.308.434c-.034,0-.065,0-.1,0a1.077,1.077,0,0,1-1.073-.982,1.078,1.078,0,0,1,.978-1.172c1.407-.127,2.828-.268,4.261-.43a1.1,1.1,0,0,1,1.192.952,1.081,1.081,0,0,1-.952,1.194m-8.627.775q-2.186.15-4.323.25a.392.392,0,0,1-.054,0,1.079,1.079,0,0,1-1.077-1.026,1.079,1.079,0,0,1,1.026-1.131q2.115-.1,4.278-.25a1.077,1.077,0,0,1,1.154,1,1.083,1.083,0,0,1-1,1.15m28.645-5.356a1.079,1.079,0,0,1,.782-1.312c.233-.058.468-.127.706-.19.3-3.067.468-6.226.468-9.5q0-27.768-13.713-44.222L-75.1-51a1.068,1.068,0,0,1-.762.316A1.079,1.079,0,0,1-76.631-51a1.08,1.08,0,0,1,0-1.526l25.917-25.914c.009-.008.022-.012.032-.022l6.555-6.554a1.08,1.08,0,0,0,0-1.526,1.079,1.079,0,0,0-1.526,0L-56.46-75.737a54.809,54.809,0,0,0-11.034-8.727l-8.1,8.1a1.079,1.079,0,0,1-.764.316,1.073,1.073,0,0,1-.763-.316,1.077,1.077,0,0,1,0-1.526l7.673-7.674Q-81.9-92.3-98.027-92.3q-25.653,0-41.4,18.133t-15.74,47.159a86.469,86.469,0,0,0,1.873,18.24L-164.243,2.182V-54.991q0-15.941-9.8-26.625A31.828,31.828,0,0,0-198.519-92.3a31.233,31.233,0,0,0-15.514,3.886,37.584,37.584,0,0,0-12.4,11.79l-4.011-12.827h-35.369v53.567l16.278-16.277a1.079,1.079,0,0,1,1.526,0,1.08,1.08,0,0,1,0,1.526l-10.8,10.8a1.064,1.064,0,0,1,1.031.264,1.076,1.076,0,0,1,0,1.526l-8.037,8.037V34.01h40.681V-35.3q0-10.238,3.239-15.94t8.676-5.7q7.773,0,7.778,10.494v9.487a5.316,5.316,0,0,1,3.293,4.911,5.311,5.311,0,0,1-3.293,4.911V4.3l16.4-16.4a1.076,1.076,0,0,1,1.526,0,1.08,1.08,0,0,1,0,1.526L-205.438,7.357V34.01h41.195V7.751l-7.595,7.6a1.082,1.082,0,0,1-.764.315,1.075,1.075,0,0,1-.762-.315,1.076,1.076,0,0,1,0-1.526l25.915-25.914a1.076,1.076,0,0,1,1.526,0,1.08,1.08,0,0,1,0,1.526l-6.241,6.239a62.07,62.07,0,0,0,12.029,23.184Q-125.1,36.864-98.159,36.864q26.878,0,42.538-18.109l-2.815-2.815a1.081,1.081,0,0,1,0-1.527,1.08,1.08,0,0,1,1.526,0l2.668,2.667q11.166-13.87,13.653-33.6a1.056,1.056,0,0,1-.18.024,1.081,1.081,0,0,1-1.047-.814" transform="translate(265.812 92.303)"/>
      </g>
      <g id="Group_7" data-name="Group 7" transform="translate(248.17 339.111)">
        <path id="Path_7" data-name="Path 7" class="cls-4" d="M-6.58-6.18a18.372,18.372,0,0,0-4.748-2.85q-2.665-1.1-5.434-1.978T-22.2-12.7a22.585,22.585,0,0,1-4.749-2.029A10.6,10.6,0,0,1-30.293-17.7a7.662,7.662,0,0,1-1.268-4.564,7.973,7.973,0,0,1,.739-3.487,7.951,7.951,0,0,1,2.005-2.608,8.954,8.954,0,0,1,2.982-1.662,11.274,11.274,0,0,1,3.665-.581h3.8a9.241,9.241,0,0,1,3.668.737,9.477,9.477,0,0,1,2.979,2.007,9.454,9.454,0,0,1,2.008,2.982,9.2,9.2,0,0,1,.736,3.665v1.634l6.489-1.055v-.21a15.553,15.553,0,0,0-1.239-6.174,15.969,15.969,0,0,0-3.4-5.063,15.909,15.909,0,0,0-5.063-3.4,15.548,15.548,0,0,0-6.174-1.241h-3.8a17.292,17.292,0,0,0-6.146,1.081,15.717,15.717,0,0,0-5.039,3.033,14.507,14.507,0,0,0-3.43,4.669,14.042,14.042,0,0,0-1.265,5.989,14.618,14.618,0,0,0,1.265,6.438,12.76,12.76,0,0,0,3.353,4.3,17.639,17.639,0,0,0,4.748,2.771q2.665,1.052,5.462,1.871t5.46,1.636a21.957,21.957,0,0,1,4.748,2.058A10.466,10.466,0,0,1-9.667.206,8.2,8.2,0,0,1-8.4,4.956a7.245,7.245,0,0,1-.818,3.48,8.108,8.108,0,0,1-2.212,2.612,10.425,10.425,0,0,1-3.193,1.66,12.058,12.058,0,0,1-3.748.578H-22.7a9.725,9.725,0,0,1-3.743-.734,10.544,10.544,0,0,1-3.167-2.005A9.771,9.771,0,0,1-31.8,7.564,8.414,8.414,0,0,1-32.613,3.9V.312L-39.1,1.366V3.528A14.473,14.473,0,0,0-37.758,9.7a16.723,16.723,0,0,0,3.586,5.064,16.65,16.65,0,0,0,5.224,3.405A16.11,16.11,0,0,0-22.7,19.41h4.327a18.213,18.213,0,0,0,6.254-1.084,16.629,16.629,0,0,0,5.248-3.032,14.334,14.334,0,0,0,3.588-4.669A13.537,13.537,0,0,0-1.962,4.638,14.8,14.8,0,0,0-3.227-1.827,13,13,0,0,0-6.58-6.18" transform="translate(39.105 36.725)"/>
      </g>
      <path id="Path_8" data-name="Path 8" class="cls-4" d="M241.987-41.31h6.489v-75.655h-6.489Z" transform="translate(-40.718 435.503)"/>
    </g>
    <g id="Group_11" data-name="Group 11" class="cls-5" transform="translate(44 53)">
      <g id="Group_9" data-name="Group 9" transform="translate(151.097 339.111)">
        <path id="Path_10" data-name="Path 10" class="cls-4" d="M-6.361-.939a15.928,15.928,0,0,0-5.067-3.4A15.534,15.534,0,0,0-17.6-5.583h-4.328A15.531,15.531,0,0,0-28.1-4.342a15.88,15.88,0,0,0-5.064,3.4,15.9,15.9,0,0,0-3.4,5.063A15.539,15.539,0,0,0-37.806,10.3V34.67a15.511,15.511,0,0,0,1.241,6.172,15.83,15.83,0,0,0,3.4,5.064A15.914,15.914,0,0,0-28.1,49.312a15.53,15.53,0,0,0,6.172,1.239H-17.6a15.533,15.533,0,0,0,6.17-1.239,15.962,15.962,0,0,0,5.067-3.405,15.893,15.893,0,0,0,3.4-5.064A15.525,15.525,0,0,0-1.72,34.67V32.508l-6.488-1.054V35.04a9.136,9.136,0,0,1-.739,3.665,9.5,9.5,0,0,1-2,2.984,9.557,9.557,0,0,1-2.981,2.005,9.176,9.176,0,0,1-3.666.734h-4.328a9.161,9.161,0,0,1-3.666-.734,9.49,9.49,0,0,1-2.981-2.005,9.494,9.494,0,0,1-2.006-2.984,9.134,9.134,0,0,1-.737-3.665V9.928a9.143,9.143,0,0,1,.737-3.665,9.435,9.435,0,0,1,2.006-2.982,9.494,9.494,0,0,1,2.981-2.007A9.235,9.235,0,0,1-21.926.537H-17.6a9.25,9.25,0,0,1,3.666.737,9.561,9.561,0,0,1,2.981,2.007,9.44,9.44,0,0,1,2,2.982,9.144,9.144,0,0,1,.739,3.665v3.586l6.488-1.054V10.3A15.553,15.553,0,0,0-2.96,4.123a15.96,15.96,0,0,0-3.4-5.063" transform="translate(37.806 5.583)"/>
      </g>
      <g id="Group_10" data-name="Group 10" transform="translate(0 309.462)">
        <path id="Path_11" data-name="Path 11" class="cls-4" d="M-4.958-.283a18.1,18.1,0,0,0-5.909,3.877,17.561,17.561,0,0,0-3.9,5.884,19.434,19.434,0,0,0-1.4,7.465v19.52a13.121,13.121,0,0,1-.872,4.88,11.411,11.411,0,0,1-2.4,3.771,10.9,10.9,0,0,1-3.64,2.48,13.124,13.124,0,0,1-4.643,1h-1.741v5.8H-28.3a13.378,13.378,0,0,1,4.882.87,11.171,11.171,0,0,1,3.849,2.453,11.063,11.063,0,0,1,2.506,3.825,13.284,13.284,0,0,1,.9,4.985V86.055a19.432,19.432,0,0,0,1.4,7.463,17.524,17.524,0,0,0,3.9,5.883,18.086,18.086,0,0,0,5.909,3.878,19.176,19.176,0,0,0,7.359,1.4h.529V98.823H2.4a13.142,13.142,0,0,1-4.852-.872A11.232,11.232,0,0,1-6.278,95.5a11.071,11.071,0,0,1-2.5-3.828,13.138,13.138,0,0,1-.9-4.933V67.168a18.676,18.676,0,0,0-2.243-9.18A17.873,17.873,0,0,0-17.909,51.5a16.948,16.948,0,0,0,5.987-6.438,18.968,18.968,0,0,0,2.243-9.234V16.256a13.138,13.138,0,0,1,.9-4.933A11,11,0,0,1-6.278,7.5,11.26,11.26,0,0,1-2.451,5.043,13.192,13.192,0,0,1,2.4,4.175h.529V-1.682H2.4a19.175,19.175,0,0,0-7.359,1.4" transform="translate(29.463 1.682)"/>
      </g>
    </g>
    <g id="Group_18" data-name="Group 18" class="cls-2" transform="translate(44 53)">
      <g id="Group_12" data-name="Group 12" transform="translate(102.031 339.111)">
        <path id="Path_13" data-name="Path 13" class="cls-4" d="M-5.988-8.218a9.136,9.136,0,0,1-.74,3.665,9.444,9.444,0,0,1-2,2.983A9.5,9.5,0,0,1-11.712.437a9.181,9.181,0,0,1-3.666.734H-19.7A9.17,9.17,0,0,1-23.371.437a9.469,9.469,0,0,1-2.981-2.006,9.508,9.508,0,0,1-2.006-2.983A9.177,9.177,0,0,1-29.1-8.218v-2.266a9.181,9.181,0,0,1,.737-3.666,9.811,9.811,0,0,1,2.006-3.009,9.22,9.22,0,0,1,2.981-2.029,9.132,9.132,0,0,1,3.666-.74H-5.988ZM-4.141-44.2a15.957,15.957,0,0,0-5.065-3.4,15.549,15.549,0,0,0-6.172-1.241h-3.8A15.532,15.532,0,0,0-25.349-47.6a15.928,15.928,0,0,0-5.067,3.4,15.915,15.915,0,0,0-3.4,5.062,15.546,15.546,0,0,0-1.24,6.175v.529l6.49,1.053V-33.33A9.143,9.143,0,0,1-27.829-37a9.4,9.4,0,0,1,2.006-2.982,9.483,9.483,0,0,1,2.98-2.008,9.239,9.239,0,0,1,3.667-.736h3.8a9.255,9.255,0,0,1,3.666.736,9.516,9.516,0,0,1,2.981,2.008,9.389,9.389,0,0,1,2,2.982,9.145,9.145,0,0,1,.74,3.665v8.336H-19.7a15.56,15.56,0,0,0-6.173,1.239,15.967,15.967,0,0,0-5.064,3.4,15.963,15.963,0,0,0-3.4,5.064,15.528,15.528,0,0,0-1.241,6.174v.525a15.511,15.511,0,0,0,1.241,6.172,15.9,15.9,0,0,0,3.4,5.064,15.926,15.926,0,0,0,5.064,3.4A15.517,15.517,0,0,0-19.7,7.293h1.634a15.285,15.285,0,0,0,7.282-1.766A16.838,16.838,0,0,0-5.25.858L-1.66,6.24H.5v-39.2A15.575,15.575,0,0,0-.739-39.135a15.958,15.958,0,0,0-3.4-5.062" transform="translate(35.586 48.841)"/>
      </g>
      <g id="Group_13" data-name="Group 13" transform="translate(505.784 318.538)">
        <path id="Path_14" data-name="Path 14" class="cls-4" d="M0-3.351H6.807V-13.426H33.082L4.748,55.742h7.124l29.6-72.384v-3.27H0Z" transform="translate(0 19.913)"/>
      </g>
      <g id="Group_14" data-name="Group 14" transform="translate(209.024 340.169)">
        <path id="Path_15" data-name="Path 15" class="cls-4" d="M-4.462,0-26.516,27.009-4.462,54.023H3.98L-18.6,27.009,3.98,0Z" transform="translate(26.516)"/>
      </g>
      <g id="Group_15" data-name="Group 15" transform="translate(393.255 317.482)">
        <path id="Path_16" data-name="Path 16" class="cls-4" d="M-6.8-11.976a11.7,11.7,0,0,1-.952,4.719A12.545,12.545,0,0,1-10.335-3.4a12.038,12.038,0,0,1-3.823,2.61A11.729,11.729,0,0,1-18.88.157h-2.586a11.7,11.7,0,0,1-4.722-.952A12.323,12.323,0,0,1-30.041-3.4a12.408,12.408,0,0,1-2.612-3.852,11.782,11.782,0,0,1-.947-4.719V-52.6a11.773,11.773,0,0,1,.947-4.721,12.065,12.065,0,0,1,2.612-3.828,12.519,12.519,0,0,1,3.853-2.583,11.7,11.7,0,0,1,4.722-.95h2.586a11.728,11.728,0,0,1,4.722.95,12.224,12.224,0,0,1,3.823,2.583,12.194,12.194,0,0,1,2.584,3.828A11.691,11.691,0,0,1-6.8-52.6ZM-5.43-65.74a18.706,18.706,0,0,0-5.907-3.981,18.118,18.118,0,0,0-7.23-1.451h-3.218a18.3,18.3,0,0,0-7.252,1.451,18.632,18.632,0,0,0-5.934,3.981,18.781,18.781,0,0,0-3.986,5.911A18.113,18.113,0,0,0-40.405-52.6v40.625A18.107,18.107,0,0,0-38.957-4.75a18.745,18.745,0,0,0,3.986,5.909A18.591,18.591,0,0,0-29.037,5.14a18.272,18.272,0,0,0,7.252,1.453h3.218a18.091,18.091,0,0,0,7.23-1.453A18.664,18.664,0,0,0-5.43,1.159,18.715,18.715,0,0,0-1.445-4.75,18.109,18.109,0,0,0,.006-11.976V-52.6a18.115,18.115,0,0,0-1.451-7.228A18.75,18.75,0,0,0-5.43-65.74" transform="translate(40.405 71.171)"/>
      </g>
      <g id="Group_16" data-name="Group 16" transform="translate(45.371 318.538)">
        <path id="Path_17" data-name="Path 17" class="cls-4" d="M-7.237-7H-36.2V-41.607h-6.806V34.048H-36.2V-.512H-7.237V34.048h6.8V-41.607h-6.8Z" transform="translate(43.007 41.607)"/>
      </g>
      <g id="Group_17" data-name="Group 17" transform="translate(449.916 318.537)">
        <path id="Path_18" data-name="Path 18" class="cls-4" d="M-5.027,0h-6.807L-29.875,7.6v6.488l18.041-7.6V69.163H-29.875v6.492H13.017V69.163H-5.027Z" transform="translate(29.875)"/>
      </g>
    </g>
    <g id="Group_21" data-name="Group 21" class="cls-5" transform="translate(44 53)">
      <g id="Group_19" data-name="Group 19" transform="translate(336.645 317.481)">
        <path id="Path_20" data-name="Path 20" class="cls-4" d="M-5.337-10.9q2.951-3.639,5.775-7.757a71.478,71.478,0,0,0,5.013-8.493,54.847,54.847,0,0,0,3.537-8.916,31.64,31.64,0,0,0,1.342-9.023,21.744,21.744,0,0,0-1.448-8.15,18.707,18.707,0,0,0-3.983-6.2A17.272,17.272,0,0,0-1.037-63.39a19.172,19.172,0,0,0-7.255-1.373h-3.217a18.115,18.115,0,0,0-7.229,1.451,18.678,18.678,0,0,0-5.907,3.981A18.769,18.769,0,0,0-28.63-53.42a18.116,18.116,0,0,0-1.451,7.228v1.951l6.807,1.108v-3.059a11.78,11.78,0,0,1,.948-4.722,12.26,12.26,0,0,1,2.586-3.828,12.232,12.232,0,0,1,3.826-2.582,11.7,11.7,0,0,1,4.719-.95h2.588a12.974,12.974,0,0,1,4.564.816A11.174,11.174,0,0,1-.167-55a11.786,11.786,0,0,1,2.691,4.117,15.39,15.39,0,0,1,1,5.8,29.282,29.282,0,0,1-1.5,9.1A51.523,51.523,0,0,1-1.96-26.91,76.608,76.608,0,0,1-7.6-18.231q-3.17,4.219-6.492,7.966A158.722,158.722,0,0,1-31.716,6.566v5.382H10.859V5.456H-21.006A144.937,144.937,0,0,0-5.337-10.9" transform="translate(31.716 64.763)"/>
      </g>
      <g id="Group_20" data-name="Group 20" transform="translate(295.597 309.461)">
        <path id="Path_21" data-name="Path 21" class="cls-4" d="M-5.337-10A11.58,11.58,0,0,1-9.19-12.448a10.876,10.876,0,0,1-2.53-3.825,13.257,13.257,0,0,1-.9-4.985v-19.52a19.451,19.451,0,0,0-1.4-7.466,17.611,17.611,0,0,0-3.9-5.883A18.106,18.106,0,0,0-23.83-58a19.158,19.158,0,0,0-7.358-1.4h-.531v5.857h.531a13.174,13.174,0,0,1,4.852.868,11.537,11.537,0,0,1,3.853,2.456A10.9,10.9,0,0,1-19.951-46.4a13.17,13.17,0,0,1,.9,4.933v19.572a19.233,19.233,0,0,0,2.189,9.209,16.839,16.839,0,0,0,5.99,6.462,17.25,17.25,0,0,0-5.99,6.49,19.065,19.065,0,0,0-2.189,9.179V29.019a13.17,13.17,0,0,1-.9,4.933,10.982,10.982,0,0,1-2.532,3.828,11.521,11.521,0,0,1-3.853,2.449,13.124,13.124,0,0,1-4.852.872h-.531v5.857h.531a19.143,19.143,0,0,0,7.358-1.4,18.1,18.1,0,0,0,5.911-3.877,17.6,17.6,0,0,0,3.9-5.883,19.447,19.447,0,0,0,1.4-7.463V8.813a13.3,13.3,0,0,1,.847-4.827,11.139,11.139,0,0,1,2.4-3.8A11.314,11.314,0,0,1-5.681-2.344,12.29,12.29,0,0,1-1.01-3.32H.676v-5.8H-.484A13.181,13.181,0,0,1-5.337-10" transform="translate(31.718 59.403)"/>
      </g>
    </g>
    <g id="Schraffur_Bubbles_usw." data-name="Schraffur, Bubbles, usw." class="cls-2" transform="translate(44 53)">
      <g id="Group_22" data-name="Group 22" transform="translate(38.396 255.35)">
        <path id="Path_23" data-name="Path 23" class="cls-3" d="M0-.673l.038.13C.067-.567.1-.578.128-.6A6.764,6.764,0,0,0,2.386-4,8.868,8.868,0,0,1,0-.673" transform="translate(0 3.997)"/>
      </g>
      <g id="Group_23" data-name="Group 23" transform="translate(27.475 246.659)">
        <path id="Path_24" data-name="Path 24" class="cls-3" d="M-.511-.3A6.786,6.786,0,0,0-1.675,9.064a6.713,6.713,0,0,0,3.354,1.15,1.111,1.111,0,0,1,.462.131A1.145,1.145,0,0,1,2.67,11l.216.734A6.822,6.822,0,0,0,5.975,11.4L5.6,10.133a1.079,1.079,0,0,1,.522-1.257l.027-.015A6.736,6.736,0,0,0,8.537,1.568,6.681,6.681,0,0,0,7.251-.806,6.782,6.782,0,0,0-.511-.3" transform="translate(3.039 1.791)"/>
      </g>
      <g id="Group_24" data-name="Group 24" transform="translate(23.675 243.025)">
        <path id="Path_25" data-name="Path 25" class="cls-4" d="M-.493-2.187a6.751,6.751,0,0,1,4.56-8.376,6.7,6.7,0,0,1,1.906-.276,6.76,6.76,0,0,1,5.187,2.461A6.694,6.694,0,0,1,12.445-6a6.736,6.736,0,0,1-2.385,7.293l-.027.015A1.079,1.079,0,0,0,9.51,2.561l.373,1.263.8,2.7-2.933.866L6.794,4.158l-.215-.734a1.142,1.142,0,0,0-.53-.65,1.093,1.093,0,0,0-.462-.132,6.711,6.711,0,0,1-3.354-1.15A6.728,6.728,0,0,1-.493-2.187M9.232,13.49l2.473-.349a1.08,1.08,0,0,0,.917-1.22,1.06,1.06,0,0,0-.367-.652l.5-.045a1.077,1.077,0,0,0,.983-1.168,1.1,1.1,0,0,0-1.168-.982l-4.082.349,3.835-1.131a1.08,1.08,0,0,0,.729-1.341L11.827,2.783l-.037-.13A8.868,8.868,0,0,0,14.176-.671a8.9,8.9,0,0,0,.339-5.944,8.918,8.918,0,0,0-11.06-6.018,8.832,8.832,0,0,0-5.3,4.283,8.848,8.848,0,0,0-.719,6.776,8.934,8.934,0,0,0,7.274,6.3l1.273,4.32a1.072,1.072,0,0,0,.518.64.985.985,0,0,0,.376.1,1.059,1.059,0,0,0-.39.9,1.077,1.077,0,0,0,1.073.986c.032,0,.063,0,.095,0l.757-.065a1.064,1.064,0,0,0-.4.976,1.08,1.08,0,0,0,1.067.928,1.228,1.228,0,0,0,.154-.011" transform="translate(2.932 12.997)"/>
      </g>
      <g id="Group_25" data-name="Group 25" transform="translate(26.986 235.537)">
        <path id="Path_26" data-name="Path 26" class="cls-4" d="M-.307-1.293A1.078,1.078,0,0,0,.728-.52a1.151,1.151,0,0,0,.305-.043A1.08,1.08,0,0,0,1.763-1.9L.287-6.91A1.082,1.082,0,0,0-1.054-7.64,1.08,1.08,0,0,0-1.783-6.3Z" transform="translate(1.827 7.682)"/>
      </g>
      <g id="Group_26" data-name="Group 26" transform="translate(36.886 235.86)">
        <path id="Path_27" data-name="Path 27" class="cls-4" d="M-.218-1.462a1.08,1.08,0,0,0,1.05-.827L2.054-7.363a1.08,1.08,0,0,0-.8-1.3,1.092,1.092,0,0,0-1.3.8L-1.268-2.794a1.08,1.08,0,0,0,.8,1.3,1.153,1.153,0,0,0,.253.03" transform="translate(1.298 8.69)"/>
      </g>
      <g id="Group_27" data-name="Group 27" transform="translate(41.756 242.167)">
        <path id="Path_28" data-name="Path 28" class="cls-4" d="M-1.292-.1A1.075,1.075,0,0,0-2.782-.43L-5.2,1.114l-1.98,1.268A1.077,1.077,0,0,0-7.5,3.871a1.073,1.073,0,0,0,.908.5A1.083,1.083,0,0,0-6.014,4.2l.817-.522,3.579-2.288A1.077,1.077,0,0,0-1.292-.1" transform="translate(7.676 0.601)"/>
      </g>
      <g id="Group_28" data-name="Group 28" transform="translate(17.966 241.8)">
        <path id="Path_29" data-name="Path 29" class="cls-4" d="M-.833-1.1a1.086,1.086,0,0,0,.744.3,1.078,1.078,0,0,0,.782-.335A1.079,1.079,0,0,0,.656-2.669l-3.78-3.594a1.08,1.08,0,0,0-1.526.037A1.079,1.079,0,0,0-4.613-4.7Z" transform="translate(4.948 6.561)"/>
      </g>
      <g id="Group_29" data-name="Group 29" transform="translate(297.957 134.547)">
        <path id="Path_30" data-name="Path 30" class="cls-4" d="M-.522-1.043A2.579,2.579,0,0,0,2.056-3.622,2.579,2.579,0,0,0-.522-6.2,2.579,2.579,0,0,0-3.1-3.622,2.579,2.579,0,0,0-.522-1.043" transform="translate(3.102 6.2)"/>
      </g>
      <g id="Group_30" data-name="Group 30" transform="translate(254.063 144.525)">
        <path id="Path_31" data-name="Path 31" class="cls-3" d="M-.6-.437a.791.791,0,0,1,.79.791.793.793,0,0,1-.79.793A.8.8,0,0,1-1.39.354.793.793,0,0,1-.6-.437m0,3.742A2.954,2.954,0,0,0,2.352.354,2.954,2.954,0,0,0-.6-2.6,2.954,2.954,0,0,0-3.548.354,2.954,2.954,0,0,0-.6,3.305" transform="translate(3.548 2.596)"/>
      </g>
      <g id="Group_31" data-name="Group 31" transform="translate(102.815 134.977)">
        <path id="Path_32" data-name="Path 32" class="cls-3" d="M-.6-.437A.794.794,0,0,1,.2.356.793.793,0,0,1-.6,1.147a.791.791,0,0,1-.79-.791A.792.792,0,0,1-.6-.437m0,3.742A2.954,2.954,0,0,0,2.355.356,2.955,2.955,0,0,0-.6-2.6,2.955,2.955,0,0,0-3.546.356,2.953,2.953,0,0,0-.6,3.305" transform="translate(3.546 2.596)"/>
      </g>
      <g id="Group_32" data-name="Group 32" transform="translate(206.522 280.214)">
        <path id="Path_33" data-name="Path 33" class="cls-4" d="M-.522-1.043a2.579,2.579,0,0,0,2.578-2.58A2.577,2.577,0,0,0-.522-6.2,2.578,2.578,0,0,0-3.1-3.623,2.58,2.58,0,0,0-.522-1.043" transform="translate(3.101 6.201)"/>
      </g>
      <g id="Group_33" data-name="Group 33" transform="translate(446.216 181.321)">
        <path id="Path_34" data-name="Path 34" class="cls-4" d="M-.521-1.043a2.579,2.579,0,0,0,2.58-2.578A2.58,2.58,0,0,0-.521-6.2,2.58,2.58,0,0,0-3.1-3.622,2.579,2.579,0,0,0-.521-1.043" transform="translate(3.099 6.201)"/>
      </g>
      <g id="Group_34" data-name="Group 34" transform="translate(185.977 290.451)">
        <path id="Path_35" data-name="Path 35" class="cls-4" d="M-1.075,0A5.316,5.316,0,0,0-6.389,5.315a5.313,5.313,0,0,0,5.314,5.313A5.313,5.313,0,0,0,4.239,5.315,5.316,5.316,0,0,0-1.075,0" transform="translate(6.389)"/>
      </g>
      <g id="Group_35" data-name="Group 35" transform="translate(271.943 214.601)">
        <path id="Path_36" data-name="Path 36" class="cls-4" d="M-2.15-1.075A5.316,5.316,0,0,0-5.442-5.986a5.331,5.331,0,0,0-2.023-.4,5.314,5.314,0,0,0-5.313,5.314A5.312,5.312,0,0,0-7.465,4.238a5.3,5.3,0,0,0,2.023-.4A5.312,5.312,0,0,0-2.15-1.075" transform="translate(12.778 6.389)"/>
      </g>
      <g id="Group_36" data-name="Group 36" transform="translate(91.792 145.769)">
        <path id="Path_37" data-name="Path 37" class="cls-4" d="M-1.075-2.15A5.314,5.314,0,0,0,4.239-7.464a5.315,5.315,0,0,0-5.314-5.314A5.315,5.315,0,0,0-6.389-7.464,5.314,5.314,0,0,0-1.075-2.15" transform="translate(6.389 12.778)"/>
      </g>
      <g id="Group_37" data-name="Group 37" transform="translate(155.167 245.567)">
        <path id="Path_38" data-name="Path 38" class="cls-3" d="M-.437-.6A.792.792,0,0,1,.354-1.39.794.794,0,0,1,1.147-.6a.793.793,0,0,1-.793.79A.791.791,0,0,1-.437-.6m3.742,0A2.956,2.956,0,0,0,.354-3.548,2.956,2.956,0,0,0-2.6-.6,2.955,2.955,0,0,0,.354,2.352,2.955,2.955,0,0,0,3.305-.6" transform="translate(2.596 3.548)"/>
      </g>
      <g id="Group_38" data-name="Group 38" transform="translate(262.714 129.474)">
        <path id="Path_39" data-name="Path 39" class="cls-4" d="M-.175-1.534A1.084,1.084,0,0,0,1.1-2.378,5.734,5.734,0,0,1,7.845-6.841a5.725,5.725,0,0,1,4.46,6.746A5.726,5.726,0,0,1,5.559,4.369a1.09,1.09,0,0,0-1.273.843L3.264,10.236a1.081,1.081,0,0,0,.842,1.273,1.144,1.144,0,0,0,.218.021,1.08,1.08,0,0,0,1.055-.864L6.2,6.629A7.929,7.929,0,0,0,14.423.335,7.89,7.89,0,0,0,8.275-8.958a7.889,7.889,0,0,0-9.294,6.15A1.083,1.083,0,0,0-.175-1.534" transform="translate(1.04 9.118)"/>
      </g>
      <g id="Group_39" data-name="Group 39" transform="translate(265.918 152.844)">
        <path id="Path_40" data-name="Path 40" class="cls-4" d="M-.279,0a1.15,1.15,0,0,0-1.356.9,1.149,1.149,0,0,0,.9,1.357,1.151,1.151,0,0,0,1.356-.9A1.149,1.149,0,0,0-.279,0" transform="translate(1.658 0.028)"/>
      </g>
      <g id="Group_40" data-name="Group 40" transform="translate(284.93 146.326)">
        <path id="Path_41" data-name="Path 41" class="cls-3" d="M-.233-.465A1.15,1.15,0,0,0,.916-1.616,1.148,1.148,0,0,0-.233-2.765,1.149,1.149,0,0,0-1.384-1.616,1.15,1.15,0,0,0-.233-.465" transform="translate(1.384 2.765)"/>
      </g>
      <g id="Group_41" data-name="Group 41" transform="translate(285.002 122.635)">
        <path id="Path_42" data-name="Path 42" class="cls-3" d="M-.218-4.239a1.079,1.079,0,0,0,1.08-1.08V-24.111a1.08,1.08,0,0,0-1.08-1.08,1.078,1.078,0,0,0-1.08,1.08V-5.318a1.078,1.078,0,0,0,1.08,1.08" transform="translate(1.298 25.191)"/>
      </g>
      <g id="Group_42" data-name="Group 42" transform="translate(396.622 199.477)">
        <path id="Path_43" data-name="Path 43" class="cls-4" d="M-5.307-.064l-20.548,20.55-5.369,5.366a1.081,1.081,0,0,0,0,1.527,1.077,1.077,0,0,0,.764.317,1.07,1.07,0,0,0,.762-.317l3.886-3.886L-3.781,1.462a1.076,1.076,0,0,0,0-1.526,1.079,1.079,0,0,0-1.526,0" transform="translate(31.539 0.38)"/>
      </g>
      <g id="Group_43" data-name="Group 43" transform="translate(168.31 269.117)">
        <path id="Path_44" data-name="Path 44" class="cls-6" d="M-5.615-.064a1.08,1.08,0,0,0-1.526,0l-22.7,22.7-3.217,3.217a1.079,1.079,0,0,0,0,1.526,1.071,1.071,0,0,0,.763.315,1.075,1.075,0,0,0,.764-.315l10.906-10.907L-5.615,1.462a1.079,1.079,0,0,0,0-1.526" transform="translate(33.372 0.379)"/>
      </g>
      <g id="Group_44" data-name="Group 44" transform="translate(208.95 199.477)">
        <path id="Path_45" data-name="Path 45" class="cls-6" d="M-3.331-2.611a1.055,1.055,0,0,1,.494-.264l10.8-10.8a1.08,1.08,0,0,0,0-1.526,1.08,1.08,0,0,0-1.527,0L-9.842,1.078l-9.638,9.64a1.079,1.079,0,0,0,0,1.526,1.076,1.076,0,0,0,.764.317,1.073,1.073,0,0,0,.763-.317l1.275-1.274a1.036,1.036,0,0,1,.264-.5Z" transform="translate(19.796 15.515)"/>
      </g>
      <g id="Group_45" data-name="Group 45" transform="translate(407.77 173.202)">
        <path id="Path_46" data-name="Path 46" class="cls-6" d="M-.064-5.306a1.08,1.08,0,0,0,0,1.526A1.077,1.077,0,0,0,.7-3.464a1.069,1.069,0,0,0,.762-.316L23-25.309l4.384-4.385a1.076,1.076,0,0,0,0-1.526,1.073,1.073,0,0,0-1.494-.022c-.011.01-.023.013-.032.022Z" transform="translate(0.379 31.534)"/>
      </g>
      <g id="Group_46" data-name="Group 46" transform="translate(35.4 155.682)">
        <path id="Path_47" data-name="Path 47" class="cls-6" d="M-5.615-.064a1.079,1.079,0,0,0-1.526,0l-17.4,17.4-8.518,8.519a1.079,1.079,0,0,0,0,1.526,1.076,1.076,0,0,0,.763.316,1.079,1.079,0,0,0,.764-.316l6.992-6.992L-5.615,1.462a1.079,1.079,0,0,0,0-1.526" transform="translate(33.372 0.38)"/>
      </g>
      <g id="Group_47" data-name="Group 47" transform="translate(311.035 239.547)">
        <path id="Path_48" data-name="Path 48" class="cls-6" d="M-5.616-.064a1.076,1.076,0,0,0-1.526,0L-33.057,25.85a1.078,1.078,0,0,0,0,1.527,1.079,1.079,0,0,0,.763.315,1.085,1.085,0,0,0,.764-.315l7.6-7.6L-11.857,7.7l6.241-6.239a1.08,1.08,0,0,0,0-1.526" transform="translate(33.374 0.382)"/>
      </g>
      <g id="Group_48" data-name="Group 48" transform="translate(269.444 239.547)">
        <path id="Path_49" data-name="Path 49" class="cls-6" d="M-5.615-.064a1.076,1.076,0,0,0-1.526,0l-16.4,16.4-9.518,9.518a1.081,1.081,0,0,0,0,1.527,1.089,1.089,0,0,0,.764.315,1.079,1.079,0,0,0,.763-.315l7.991-7.992L-5.615,1.462a1.08,1.08,0,0,0,0-1.526" transform="translate(33.372 0.382)"/>
      </g>
      <g id="Group_49" data-name="Group 49" transform="translate(407.283 160.664)">
        <path id="Path_50" data-name="Path 50" class="cls-4" d="M-.064-3.02A1.069,1.069,0,0,0,.7-2.7a1.077,1.077,0,0,0,.764-.316l8.1-8.1L14.544-16.1a1.076,1.076,0,0,0,0-1.526,1.079,1.079,0,0,0-1.526,0l-5.41,5.41L-.064-4.546a1.076,1.076,0,0,0,0,1.526" transform="translate(0.382 17.946)"/>
      </g>
      <g id="Group_50" data-name="Group 50" transform="translate(95.184 173.033)">
        <path id="Path_51" data-name="Path 51" class="cls-4" d="M-3.019-.373a1.079,1.079,0,0,0,0-1.526,1.079,1.079,0,0,0-1.526,0l-6.161,6.161-6.92,6.92a1.079,1.079,0,0,0,0,1.526,1.072,1.072,0,0,0,.763.316,1.063,1.063,0,0,0,.531-.161,1.041,1.041,0,0,0,.233-.155Z" transform="translate(17.943 2.215)"/>
      </g>
      <g id="Group_51" data-name="Group 51" transform="translate(38.809 168.201)">
        <path id="Path_52" data-name="Path 52" class="cls-4" d="M-3.019-.064a1.079,1.079,0,0,0-1.526,0l-7.972,7.972-5.109,5.109a1.079,1.079,0,0,0,0,1.526,1.073,1.073,0,0,0,.763.317,1.076,1.076,0,0,0,.764-.317l3.583-3.583,9.5-9.5a1.079,1.079,0,0,0,0-1.526" transform="translate(17.943 0.38)"/>
      </g>
      <g id="Group_52" data-name="Group 52" transform="translate(212.031 212.08)">
        <path id="Path_53" data-name="Path 53" class="cls-4" d="M-3.017-.061A1.066,1.066,0,0,0-4.049-.325a1.055,1.055,0,0,0-.494.264L-17.626,13.021a1.036,1.036,0,0,0-.264.5,1.061,1.061,0,0,0,.264,1.028,1.078,1.078,0,0,0,.763.315,1.082,1.082,0,0,0,.764-.315L-11.054,9.5l8.037-8.037a1.076,1.076,0,0,0,0-1.526" transform="translate(17.928 0.362)"/>
      </g>
      <g id="Group_53" data-name="Group 53" transform="translate(387.626 245.533)">
        <path id="Path_54" data-name="Path 54" class="cls-6" d="M-.064-2.711a1.08,1.08,0,0,0,0,1.526A1.084,1.084,0,0,0,.7-.87a1.075,1.075,0,0,0,.762-.315L14.547-14.27a1.08,1.08,0,0,0,0-1.526,1.08,1.08,0,0,0-1.526,0l-2.3,2.3L2.749-5.524Z" transform="translate(0.379 16.112)"/>
      </g>
      <g id="Group_54" data-name="Group 54" transform="translate(433.346 154.152)">
        <path id="Path_55" data-name="Path 55" class="cls-4" d="M-.746-.846-4.431,2.84a1.009,1.009,0,0,0,.272.54A1.073,1.073,0,0,0-3.4,3.7a1.079,1.079,0,0,0,.764-.316L3.933-3.184a1.08,1.08,0,0,0,0-1.526,1.079,1.079,0,0,0-1.526,0L-.474-1.831a1.063,1.063,0,0,1-.272.986" transform="translate(4.431 5.026)"/>
      </g>
      <g id="Group_55" data-name="Group 55" transform="translate(428.623 156.489)">
        <path id="Path_56" data-name="Path 56" class="cls-3" d="M-.218-1.764a1.082,1.082,0,0,0,.764-.316L3.425-4.958,7.111-8.644a1.063,1.063,0,0,0,.272-.986,1.07,1.07,0,0,0-.272-.541,1.079,1.079,0,0,0-1.526,0L-.98-3.607a1.076,1.076,0,0,0,0,1.526,1.071,1.071,0,0,0,.762.316" transform="translate(1.298 10.486)"/>
      </g>
      <g id="X">
        <g id="Group_142" data-name="Group 142" transform="translate(425.965 266.055)">
          <path id="Path_143" data-name="Path 143" class="cls-4" d="M-.064-.064a1.08,1.08,0,0,0,0,1.526L2.752,4.278,5.278,6.8a1.077,1.077,0,0,0,.762.315A1.078,1.078,0,0,0,6.8,5.278L4.131,2.6,1.462-.064a1.08,1.08,0,0,0-1.526,0" transform="translate(0.38 0.379)"/>
        </g>
        <g id="Group_143" data-name="Group 143" transform="translate(433.968 266.055)">
          <path id="Path_144" data-name="Path 144" class="cls-4" d="M-.218-1.517a1.074,1.074,0,0,0,.762-.315L5.885-7.174a1.08,1.08,0,0,0,0-1.526,1.08,1.08,0,0,0-1.526,0L-.983-3.358a1.08,1.08,0,0,0,0,1.526,1.085,1.085,0,0,0,.764.315" transform="translate(1.299 9.016)"/>
        </g>
        <g id="Group_144" data-name="Group 144" transform="translate(425.965 274.076)">
          <path id="Path_145" data-name="Path 145" class="cls-4" d="M-.373-1.454,4.969-6.8a1.08,1.08,0,0,0,0-1.526,1.08,1.08,0,0,0-1.526,0L-1.9-2.982a1.083,1.083,0,0,0,0,1.529,1.084,1.084,0,0,0,.764.315,1.075,1.075,0,0,0,.762-.315" transform="translate(2.214 8.638)"/>
        </g>
        <g id="Group_145" data-name="Group 145" transform="translate(433.983 274.06)">
          <path id="Path_146" data-name="Path 146" class="cls-4" d="M-.373-.064a1.08,1.08,0,0,0-1.526,0,1.08,1.08,0,0,0,0,1.526L3.442,6.805A1.08,1.08,0,1,0,4.969,5.279Z" transform="translate(2.214 0.379)"/>
        </g>
      </g>
      <g id="x-2" data-name="x" transform="translate(190.457 162.355)">
        <path id="Path_147" data-name="Path 147" class="cls-4" d="M-.064-1.7A1.078,1.078,0,0,0,.7-1.388,1.076,1.076,0,0,0,1.462-1.7L2.624-2.866,3.992-4.234,6.516-1.712a1.076,1.076,0,0,0,.764.316,1.076,1.076,0,0,0,.763-.316,1.08,1.08,0,0,0,0-1.527L5.514-5.764,8.034-8.284a1.079,1.079,0,0,0,0-1.526,1.079,1.079,0,0,0-1.526,0L3.986-7.289,1.462-9.81a1.079,1.079,0,0,0-1.526,0,1.079,1.079,0,0,0,0,1.526L2.464-5.759,1.09-4.385-.064-3.23a1.079,1.079,0,0,0,0,1.526" transform="translate(0.38 10.126)"/>
      </g>
    </g>
    <g id="Flugbahn" transform="translate(43.997 54.919)">
      <g id="Group_181" data-name="Group 181" transform="translate(611.479 143.196)">
        <path id="Path_177" data-name="Path 177" class="cls-4" d="M-1.189-1.3c-.449-1.175-.859-2.443-1.224-3.771.279-.058.561-.115.843-.171A1.071,1.071,0,0,0-.725-6.5,1.08,1.08,0,0,0-2-7.338q-2.133.426-4.238.918a1.066,1.066,0,0,0-.8,1.283,1.067,1.067,0,0,0,1.3.8c.4-.094.807-.186,1.213-.276.391,1.432.833,2.8,1.317,4.072A1.082,1.082,0,0,0-2.2.145,1.121,1.121,0,0,0-1.817.077,1.065,1.065,0,0,0-1.189-1.3" transform="translate(7.066 7.36)"/>
      </g>
      <g id="Group_182" data-name="Group 182" transform="translate(628.463 141.149)">
        <path id="Path_178" data-name="Path 178" class="cls-4" d="M-1.085,0l-.248,0c-1.3,0-2.684.065-4.229.2a1.056,1.056,0,0,0-.879,1.188,1.093,1.093,0,0,0,1.086.933c.034,0,.067,0,.1,0,1.371-.122,2.69-.182,3.9-.182l.276,0A1.075,1.075,0,0,0-.006,1.068,1.074,1.074,0,0,0-1.085,0" transform="translate(6.451 0.003)"/>
      </g>
      <g id="Group_183" data-name="Group 183" transform="translate(636.038 165.658)">
        <path id="Path_179" data-name="Path 179" class="cls-4" d="M-.94-.026A12.3,12.3,0,0,1-4.677,1.21a1.072,1.072,0,0,0-.9,1.223,1.077,1.077,0,0,0,1.065.9,1.171,1.171,0,0,0,.171-.012,14.484,14.484,0,0,0,4.4-1.453A1.06,1.06,0,0,0,.513.43,1.085,1.085,0,0,0-.94-.026" transform="translate(5.589 0.146)"/>
      </g>
      <g id="Group_184" data-name="Group 184" transform="translate(603.141 145.142)">
        <path id="Path_180" data-name="Path 180" class="cls-4" d="M-1-.008q-2.1.553-4.18,1.162a1.066,1.066,0,0,0-.732,1.325,1.076,1.076,0,0,0,1.036.768,1.11,1.11,0,0,0,.3-.044q2.05-.6,4.128-1.146A1.069,1.069,0,0,0,.319.749,1.079,1.079,0,0,0-1-.008" transform="translate(5.958 0.045)"/>
      </g>
      <g id="Group_185" data-name="Group 185" transform="translate(648.118 151.843)">
        <path id="Path_181" data-name="Path 181" class="cls-4" d="M-.556-.222a1.074,1.074,0,0,0-1.08-1.035h-.032a1.078,1.078,0,0,0-1.047,1.1l.007.374A11.806,11.806,0,0,1-3.259,3.7a1.071,1.071,0,0,0,.717,1.335,1.124,1.124,0,0,0,.318.046,1.079,1.079,0,0,0,1.031-.756A13.918,13.918,0,0,0-.55.218Z" transform="translate(3.306 1.257)"/>
      </g>
      <g id="Group_186" data-name="Group 186" transform="translate(643.591 159.901)">
        <path id="Path_182" data-name="Path 182" class="cls-4" d="M-.887-.036A1.085,1.085,0,0,0-2.377.3,15.859,15.859,0,0,1-4.933,3.372,1.06,1.06,0,0,0-4.98,4.883a1.08,1.08,0,0,0,.785.336,1.085,1.085,0,0,0,.741-.29A17.98,17.98,0,0,0-.55,1.437,1.063,1.063,0,0,0-.887-.036" transform="translate(5.274 0.202)"/>
      </g>
      <g id="Group_187" data-name="Group 187" transform="translate(637.033 141.45)">
        <path id="Path_183" data-name="Path 183" class="cls-4" d="M-1.138-.229a22.221,22.221,0,0,0-4.391-1.06,1.091,1.091,0,0,0-1.223.906A1.072,1.072,0,0,0-5.835.827a20.11,20.11,0,0,1,3.959.952,1.1,1.1,0,0,0,.369.064,1.082,1.082,0,0,0,1.015-.7A1.068,1.068,0,0,0-1.138-.229" transform="translate(6.762 1.298)"/>
      </g>
      <g id="Group_188" data-name="Group 188" transform="translate(612.745 102.13)">
        <path id="Path_184" data-name="Path 184" class="cls-4" d="M-.2-1.366a1.143,1.143,0,0,0,.116.007,1.075,1.075,0,0,0,1.07-.957q.231-2.109.5-4.215A1.071,1.071,0,0,0,.552-7.725a1.088,1.088,0,0,0-1.2.926c-.18,1.417-.35,2.838-.5,4.257A1.071,1.071,0,0,0-.2-1.366" transform="translate(1.159 7.732)"/>
      </g>
      <g id="Group_189" data-name="Group 189" transform="translate(627.745 165.427)">
        <path id="Path_185" data-name="Path 185" class="cls-4" d="M-1.073-.324A12.622,12.622,0,0,1-4.766-1.7a1.085,1.085,0,0,0-1.471.411A1.063,1.063,0,0,0-5.822.168a14.809,14.809,0,0,0,4.33,1.6,1.029,1.029,0,0,0,.212.021A1.076,1.076,0,0,0-.224.93,1.067,1.067,0,0,0-1.073-.324" transform="translate(6.375 1.834)"/>
      </g>
      <g id="Group_190" data-name="Group 190" transform="translate(616.972 152.473)">
        <path id="Path_186" data-name="Path 186" class="cls-4" d="M-.415-.131a1.085,1.085,0,0,0-1.44-.5A1.064,1.064,0,0,0-2.362.791C-1.7,2.154-1.007,3.448-.295,4.635a1.088,1.088,0,0,0,1.481.371A1.06,1.06,0,0,0,1.56,3.542C.88,2.411.215,1.173-.415-.131" transform="translate(2.468 0.739)"/>
      </g>
      <g id="Group_191" data-name="Group 191" transform="translate(621.402 159.759)">
        <path id="Path_187" data-name="Path 187" class="cls-4" d="M-.391-.089A1.083,1.083,0,0,0-1.9-.281a1.064,1.064,0,0,0-.194,1.5A27.228,27.228,0,0,0,.911,4.5a1.089,1.089,0,0,0,1.526-.058A1.062,1.062,0,0,0,2.379,2.93,24.83,24.83,0,0,1-.391-.089" transform="translate(2.322 0.506)"/>
      </g>
      <g id="Group_192" data-name="Group 192" transform="translate(619.915 141.797)">
        <path id="Path_188" data-name="Path 188" class="cls-4" d="M-1.3-.2A1.069,1.069,0,0,0-2.5-1.126Q-4.666-.85-6.8-.5A1.07,1.07,0,0,0-7.688.732a1.078,1.078,0,0,0,1.064.893,1.037,1.037,0,0,0,.18-.015q2.091-.343,4.216-.616A1.07,1.07,0,0,0-1.3-.2" transform="translate(7.703 1.138)"/>
      </g>
      <g id="Group_193" data-name="Group 193" transform="translate(538.796 99.595)">
        <path id="Path_189" data-name="Path 189" class="cls-4" d="M0-.243C.04.566.062,1.393.062,2.232q0,.839-.03,1.693a1.075,1.075,0,0,0,1.042,1.1h.037a1.077,1.077,0,0,0,1.08-1.033q.029-.892.03-1.763,0-1.314-.067-2.583A1.015,1.015,0,0,0,1.023-1.364,1.072,1.072,0,0,0,0-.243" transform="translate(0.002 1.376)"/>
      </g>
      <g id="Group_194" data-name="Group 194" transform="translate(512.724 169.476)">
        <path id="Path_190" data-name="Path 190" class="cls-4" d="M-.167-.452c1.406.336,2.859.613,4.32.827A1.44,1.44,0,0,0,4.31.386,1.077,1.077,0,0,0,5.376-.529a1.07,1.07,0,0,0-.912-1.213c-1.395-.2-2.783-.467-4.126-.789a1.1,1.1,0,0,0-1.3.789,1.069,1.069,0,0,0,.8,1.29" transform="translate(0.994 2.555)"/>
      </g>
      <g id="Group_195" data-name="Group 195" transform="translate(506.73 187.353)">
        <path id="Path_191" data-name="Path 191" class="cls-4" d="M-.56-.1Q-1.816,1.638-3.1,3.291a1.059,1.059,0,0,0,.195,1.5,1.083,1.083,0,0,0,.66.223A1.08,1.08,0,0,0-1.393,4.6Q-.078,2.913,1.2,1.148a1.059,1.059,0,0,0-.25-1.49A1.081,1.081,0,0,0-.56-.1" transform="translate(3.327 0.544)"/>
      </g>
      <g id="Group_196" data-name="Group 196" transform="translate(511.736 180.269)">
        <path id="Path_192" data-name="Path 192" class="cls-4" d="M-.5-.109Q-1.64,1.707-2.809,3.441a1.062,1.062,0,0,0,.3,1.481,1.081,1.081,0,0,0,.6.179,1.084,1.084,0,0,0,.9-.476Q.176,2.861,1.33,1.014A1.059,1.059,0,0,0,.98-.455,1.081,1.081,0,0,0-.5-.109" transform="translate(2.99 0.616)"/>
      </g>
      <g id="Group_197" data-name="Group 197" transform="translate(529.361 76.423)">
        <path id="Path_193" data-name="Path 193" class="cls-4" d="M-.6-1.064a1.08,1.08,0,0,0,.874.44,1.074,1.074,0,0,0,.633-.2,1.061,1.061,0,0,0,.24-1.492A33.1,33.1,0,0,0-1.7-5.693a1.09,1.09,0,0,0-1.529-.034,1.062,1.062,0,0,0-.032,1.512A30.735,30.735,0,0,1-.6-1.064" transform="translate(3.564 6.023)"/>
      </g>
      <g id="Group_198" data-name="Group 198" transform="translate(516.262 172.893)">
        <path id="Path_194" data-name="Path 194" class="cls-4" d="M-.744-.028A1.081,1.081,0,0,0-2.206.409Q-3.226,2.289-4.281,4.1a1.068,1.068,0,0,0,.4,1.46,1.093,1.093,0,0,0,.54.142,1.078,1.078,0,0,0,.935-.534Q-1.341,3.328-.3,1.418A1.061,1.061,0,0,0-.744-.028" transform="translate(4.424 0.156)"/>
      </g>
      <g id="Group_199" data-name="Group 199" transform="translate(514.869 67.541)">
        <path id="Path_195" data-name="Path 195" class="cls-4" d="M-.15-.448A38.973,38.973,0,0,1,3.745,1.067a1.053,1.053,0,0,0,.449.1A1.079,1.079,0,0,0,5.174.541,1.062,1.062,0,0,0,4.643-.873a40.035,40.035,0,0,0-4.112-1.6A1.077,1.077,0,0,0-.834-1.8,1.064,1.064,0,0,0-.15-.448" transform="translate(0.89 2.534)"/>
      </g>
      <g id="Group_200" data-name="Group 200" transform="translate(523.953 157.459)">
        <path id="Path_196" data-name="Path 196" class="cls-4" d="M-.634-.017a1.083,1.083,0,0,0-1.4.593q-.806,1.985-1.645,3.9a1.066,1.066,0,0,0,.563,1.4,1.069,1.069,0,0,0,.428.088A1.078,1.078,0,0,0-1.7,5.327Q-.852,3.383-.034,1.373a1.065,1.065,0,0,0-.6-1.39" transform="translate(3.771 0.095)"/>
      </g>
      <g id="Group_201" data-name="Group 201" transform="translate(520.329 165.271)">
        <path id="Path_197" data-name="Path 197" class="cls-4" d="M-.121-1.258a1.111,1.111,0,0,0,.445.113,1.017,1.017,0,0,0-.141.472A1.072,1.072,0,0,0,1.2.453Q2.727.54,4.257.538q.666,0,1.332-.014A1.075,1.075,0,0,0,6.643-.57,1.089,1.089,0,0,0,5.538-1.613c-1.4.035-2.813.011-4.216-.067l-.024,0a.488.488,0,0,0,.031-.054q.954-1.9,1.878-3.862a1.064,1.064,0,0,0-.522-1.419A1.079,1.079,0,0,0,1.25-6.5Q.337-4.56-.6-2.692A1.064,1.064,0,0,0-.121-1.258" transform="translate(0.718 7.12)"/>
      </g>
      <g id="Group_202" data-name="Group 202" transform="translate(527.159 149.487)">
        <path id="Path_198" data-name="Path 198" class="cls-4" d="M-.142-1.3a1.071,1.071,0,0,0,.378.067,1.078,1.078,0,0,0,1.011-.695q.749-1.985,1.468-4.029a1.07,1.07,0,0,0-.665-1.361,1.087,1.087,0,0,0-1.376.659Q-.035-4.641-.777-2.679A1.065,1.065,0,0,0-.142-1.3" transform="translate(0.846 7.381)"/>
      </g>
      <g id="Group_203" data-name="Group 203" transform="translate(522.669 71.108)">
        <path id="Path_199" data-name="Path 199" class="cls-4" d="M-.1-.425A32.72,32.72,0,0,1,3.3,1.939,1.089,1.089,0,0,0,4.82,1.772,1.062,1.062,0,0,0,4.651.27,35.306,35.306,0,0,0,1.02-2.249a1.084,1.084,0,0,0-1.483.355A1.061,1.061,0,0,0-.1-.425" transform="translate(0.622 2.406)"/>
      </g>
      <g id="Group_204" data-name="Group 204" transform="translate(594.935 147.556)">
        <path id="Path_200" data-name="Path 200" class="cls-4" d="M-.978-.011Q-3.044.646-5.084,1.341A1.065,1.065,0,0,0-5.751,2.7a1.077,1.077,0,0,0,1.019.72,1.084,1.084,0,0,0,.352-.058q2.017-.688,4.063-1.339A1.064,1.064,0,0,0,.378.677,1.077,1.077,0,0,0-.978-.011" transform="translate(5.811 0.064)"/>
      </g>
      <g id="Group_205" data-name="Group 205" transform="translate(481.967 211.731)">
        <path id="Path_201" data-name="Path 201" class="cls-4" d="M-.792-.046Q-2.5,1.235-4.239,2.425A1.059,1.059,0,0,0-4.514,3.91a1.079,1.079,0,0,0,.887.462,1.066,1.066,0,0,0,.613-.19Q-1.239,2.966.51,1.661A1.064,1.064,0,0,0,.721.163,1.092,1.092,0,0,0-.792-.046" transform="translate(4.706 0.26)"/>
      </g>
      <g id="Group_206" data-name="Group 206" transform="translate(504.594 166.712)">
        <path id="Path_202" data-name="Path 202" class="cls-4" d="M-.129-.439C1.212.156,2.587.7,3.964,1.162a1.085,1.085,0,0,0,.35.058A1.077,1.077,0,0,0,5.335.5,1.062,1.062,0,0,0,4.664-.858C3.351-1.3,2.035-1.818.759-2.387A1.084,1.084,0,0,0-.67-1.852,1.064,1.064,0,0,0-.129-.439" transform="translate(0.766 2.483)"/>
      </g>
      <g id="Group_207" data-name="Group 207" transform="translate(481.233 67.898)">
        <path id="Path_203" data-name="Path 203" class="cls-4" d="M-.218-.793A1.061,1.061,0,0,0,.224-.887C1.485-1.448,2.8-1.96,4.134-2.408a1.063,1.063,0,0,0,.673-1.356,1.088,1.088,0,0,0-1.368-.668c-1.4.472-2.776,1.009-4.1,1.6A1.065,1.065,0,0,0-1.2-1.423a1.081,1.081,0,0,0,.985.63" transform="translate(1.298 4.487)"/>
      </g>
      <g id="Group_208" data-name="Group 208" transform="translate(474.714 216.587)">
        <path id="Path_204" data-name="Path 204" class="cls-4" d="M-.844-.036q-1.807,1.141-3.636,2.2a1.06,1.06,0,0,0-.388,1.462,1.082,1.082,0,0,0,.932.529,1.068,1.068,0,0,0,.544-.147Q-1.527,2.928.315,1.768A1.064,1.064,0,0,0,.648.291,1.093,1.093,0,0,0-.844-.036" transform="translate(5.016 0.201)"/>
      </g>
      <g id="Group_209" data-name="Group 209" transform="translate(478.516 144.965)">
        <path id="Path_205" data-name="Path 205" class="cls-4" d="M-.049-.374q1.334,1.634,2.772,3.3a1.087,1.087,0,0,0,1.522.117,1.061,1.061,0,0,0,.118-1.507Q2.943-.106,1.629-1.717A1.084,1.084,0,0,0,.111-1.876a1.059,1.059,0,0,0-.16,1.5" transform="translate(0.29 2.115)"/>
      </g>
      <g id="Group_210" data-name="Group 210" transform="translate(497.073 162.589)">
        <path id="Path_206" data-name="Path 206" class="cls-4" d="M-.1-.42C1.124.385,2.385,1.145,3.648,1.84a1.084,1.084,0,0,0,1.468-.413A1.059,1.059,0,0,0,4.7-.026C3.484-.7,2.27-1.426,1.1-2.2a1.084,1.084,0,0,0-1.5.3A1.057,1.057,0,0,0-.1-.42" transform="translate(0.581 2.376)"/>
      </g>
      <g id="Group_211" data-name="Group 211" transform="translate(484.119 151.433)">
        <path id="Path_207" data-name="Path 207" class="cls-4" d="M-.07-.061A1.058,1.058,0,0,0-.131,1.448Q1.382,3.072,2.9,4.547a1.088,1.088,0,0,0,.758.306,1.076,1.076,0,0,0,.769-.319,1.058,1.058,0,0,0-.012-1.512Q2.932,1.587,1.454,0A1.083,1.083,0,0,0-.07-.061" transform="translate(0.418 0.345)"/>
      </g>
      <g id="Group_212" data-name="Group 212" transform="translate(497.876 65.358)">
        <path id="Path_208" data-name="Path 208" class="cls-4" d="M-.218-.478c.022,0,.043,0,.065,0Q1.958-.606,4.061-.549A1.122,1.122,0,0,0,5.168-1.588a1.072,1.072,0,0,0-1.049-1.1q-2.2-.062-4.4.073A1.074,1.074,0,0,0-1.3-1.482a1.075,1.075,0,0,0,1.077,1" transform="translate(1.297 2.705)"/>
      </g>
      <g id="Group_213" data-name="Group 213" transform="translate(489.37 65.895)">
        <path id="Path_209" data-name="Path 209" class="cls-4" d="M-.219-.634a1.17,1.17,0,0,0,.253-.03c1.36-.325,2.748-.594,4.13-.8A1.068,1.068,0,0,0,5.07-2.679a1.083,1.083,0,0,0-1.226-.9c-1.445.212-2.9.495-4.316.835a1.072,1.072,0,0,0-.8,1.289A1.08,1.08,0,0,0-.219-.634" transform="translate(1.3 3.588)"/>
      </g>
      <g id="Group_214" data-name="Group 214" transform="translate(612.358 136.134)">
        <path id="Path_210" data-name="Path 210" class="cls-4" d="M-.35-1.364a1.07,1.07,0,0,0,.2-.019A1.064,1.064,0,0,0,.712-2.626Q.337-4.645.074-6.775A1.061,1.061,0,0,0-1.132-7.7a1.072,1.072,0,0,0-.939,1.192q.272,2.191.663,4.274A1.073,1.073,0,0,0-.35-1.364" transform="translate(2.079 7.717)"/>
      </g>
      <g id="Group_215" data-name="Group 215" transform="translate(620.174 60.228)">
        <path id="Path_211" data-name="Path 211" class="cls-4" d="M-.171-1.347a1.131,1.131,0,0,0,.235.025A1.076,1.076,0,0,0,1.115-2.16l.931-4.162A1.072,1.072,0,0,0,1.225-7.6a1.077,1.077,0,0,0-1.288.812L-.994-2.619A1.07,1.07,0,0,0-.171-1.347" transform="translate(1.019 7.619)"/>
      </g>
      <g id="Group_216" data-name="Group 216" transform="translate(622.036 51.893)">
        <path id="Path_212" data-name="Path 212" class="cls-4" d="M-.172-1.349a1.126,1.126,0,0,0,.233.025,1.075,1.075,0,0,0,1.051-.838q.5-2.261.912-4.181a1.067,1.067,0,0,0-.836-1.265,1.076,1.076,0,0,0-1.276.827C-.357-5.512-.662-4.12-.994-2.622A1.067,1.067,0,0,0-.172-1.349" transform="translate(1.02 7.632)"/>
      </g>
      <g id="Group_217" data-name="Group 217" transform="translate(534.415 83.285)">
        <path id="Path_213" data-name="Path 213" class="cls-4" d="M-.379-1.141A1.077,1.077,0,0,0,.627-.459a1.063,1.063,0,0,0,.39-.073,1.063,1.063,0,0,0,.615-1.381A34.23,34.23,0,0,0-.228-5.9a1.087,1.087,0,0,0-1.461-.43A1.061,1.061,0,0,0-2.124-4.88,32.491,32.491,0,0,1-.379-1.141" transform="translate(2.255 6.456)"/>
      </g>
      <g id="Group_218" data-name="Group 218" transform="translate(473.783 71.385)">
        <path id="Path_214" data-name="Path 214" class="cls-4" d="M-.218-.954a1.078,1.078,0,0,0,.632-.2A41.1,41.1,0,0,1,3.933-3.4a1.062,1.062,0,0,0,.4-1.459,1.082,1.082,0,0,0-1.472-.394A42.819,42.819,0,0,0-.851-2.889,1.059,1.059,0,0,0-1.093-1.4a1.082,1.082,0,0,0,.874.443" transform="translate(1.298 5.398)"/>
      </g>
      <g id="Group_219" data-name="Group 219" transform="translate(611.736 127.641)">
        <path id="Path_215" data-name="Path 215" class="cls-4" d="M-.277-1.372a1.073,1.073,0,0,0,1-1.144C.621-3.9.554-5.3.51-6.725A1.078,1.078,0,0,0-.6-7.762a1.077,1.077,0,0,0-1.049,1.1q.065,2.186.215,4.3a1.076,1.076,0,0,0,1.075.99c.028,0,.052,0,.08,0" transform="translate(1.648 7.762)"/>
      </g>
      <g id="Group_220" data-name="Group 220" transform="translate(618.365 68.562)">
        <path id="Path_216" data-name="Path 216" class="cls-4" d="M-.174-1.348a1.018,1.018,0,0,0,.222.023A1.076,1.076,0,0,0,1.1-2.177Q1.552-4.306,2-6.34a1.071,1.071,0,0,0-.829-1.271,1.1,1.1,0,0,0-1.283.82q-.444,2.039-.9,4.181A1.068,1.068,0,0,0-.174-1.348" transform="translate(1.034 7.63)"/>
      </g>
      <g id="Group_221" data-name="Group 221" transform="translate(612.004 110.615)">
        <path id="Path_217" data-name="Path 217" class="cls-4" d="M-.2-1.37a.646.646,0,0,0,.067,0,1.075,1.075,0,0,0,1.078-1q.132-2.1.321-4.226A1.071,1.071,0,0,0,.278-7.751a1.105,1.105,0,0,0-1.168.972c-.125,1.432-.237,2.858-.326,4.276A1.075,1.075,0,0,0-.2-1.37" transform="translate(1.217 7.753)"/>
      </g>
      <g id="Group_222" data-name="Group 222" transform="translate(615.139 85.283)">
        <path id="Path_218" data-name="Path 218" class="cls-4" d="M-.182-1.357A1.051,1.051,0,0,0,0-1.342a1.079,1.079,0,0,0,1.062-.889q.359-2.113.743-4.188A1.073,1.073,0,0,0,.934-7.661,1.092,1.092,0,0,0-.32-6.8Q-.7-4.715-1.067-2.59A1.073,1.073,0,0,0-.182-1.357" transform="translate(1.082 7.677)"/>
      </g>
      <g id="Group_223" data-name="Group 223" transform="translate(613.814 93.692)">
        <path id="Path_219" data-name="Path 219" class="cls-4" d="M-.188-1.361a1.17,1.17,0,0,0,.151.011,1.075,1.075,0,0,0,1.066-.92q.3-2.107.632-4.2a1.069,1.069,0,0,0-.9-1.221A1.094,1.094,0,0,0-.471-6.8c-.22,1.4-.436,2.816-.637,4.232a1.072,1.072,0,0,0,.92,1.206" transform="translate(1.118 7.701)"/>
      </g>
      <g id="Group_224" data-name="Group 224" transform="translate(616.672 76.906)">
        <path id="Path_220" data-name="Path 220" class="cls-4" d="M-.177-1.352a1.175,1.175,0,0,0,.207.019A1.076,1.076,0,0,0,1.088-2.2c.274-1.41.548-2.8.827-4.174a1.071,1.071,0,0,0-.846-1.258A1.087,1.087,0,0,0-.2-6.795Q-.621-4.729-1.034-2.6A1.073,1.073,0,0,0-.177-1.352" transform="translate(1.053 7.652)"/>
      </g>
      <g id="Group_225" data-name="Group 225" transform="translate(644.97 144.48)">
        <path id="Path_221" data-name="Path 221" class="cls-4" d="M-.572-1.032a1.076,1.076,0,0,0,.965.59A1.077,1.077,0,0,0,.875-.553a1.064,1.064,0,0,0,.484-1.434A10.788,10.788,0,0,0-1.647-5.606a1.085,1.085,0,0,0-1.517.173,1.062,1.062,0,0,0,.175,1.5,8.649,8.649,0,0,1,2.418,2.9" transform="translate(3.397 5.839)"/>
      </g>
      <g id="Group_226" data-name="Group 226" transform="translate(536.394 116.529)">
        <path id="Path_222" data-name="Path 222" class="cls-4" d="M-.432-1.172q.418-2.078.808-4.2A1.071,1.071,0,0,0-.493-6.616a1.083,1.083,0,0,0-1.256.859q-.386,2.11-.8,4.167A1.068,1.068,0,0,0-1.7-.333a1.073,1.073,0,0,0,.214.021A1.076,1.076,0,0,0-.432-1.172" transform="translate(2.569 6.631)"/>
      </g>
      <g id="Group_227" data-name="Group 227" transform="translate(537.934 108.113)">
        <path id="Path_223" data-name="Path 223" class="cls-4" d="M-.219-1.364a1.075,1.075,0,0,0,1.062-.9l.108-.655q.307-1.85.494-3.625A1.069,1.069,0,0,0,.487-7.714,1.087,1.087,0,0,0-.7-6.765c-.121,1.146-.283,2.313-.477,3.508l-.108.651A1.066,1.066,0,0,0-.4-1.379a.99.99,0,0,0,.177.015" transform="translate(1.3 7.72)"/>
      </g>
      <g id="Group_228" data-name="Group 228" transform="translate(534.577 124.883)">
        <path id="Path_224" data-name="Path 224" class="cls-4" d="M-.431-1.174q.489-2.062.95-4.173A1.066,1.066,0,0,0-.308-6.616,1.072,1.072,0,0,0-1.59-5.8Q-2.047-3.7-2.532-1.662a1.065,1.065,0,0,0,.8,1.283,1.02,1.02,0,0,0,.246.029A1.076,1.076,0,0,0-.431-1.174" transform="translate(2.561 6.641)"/>
      </g>
      <g id="Group_229" data-name="Group 229" transform="translate(611.689 119.119)">
        <path id="Path_225" data-name="Path 225" class="cls-4" d="M-.217-1.374H-.21A1.076,1.076,0,0,0,.869-2.436q.012-2.094.1-4.228A1.076,1.076,0,0,0-.075-7.772,1.126,1.126,0,0,0-1.193-6.743c-.057,1.444-.089,2.878-.1,4.3A1.074,1.074,0,0,0-.217-1.374" transform="translate(1.29 7.772)"/>
      </g>
      <g id="Group_230" data-name="Group 230" transform="translate(537.528 91.196)">
        <path id="Path_226" data-name="Path 226" class="cls-4" d="M-.007-.287A38.3,38.3,0,0,1,.816,3.772a1.075,1.075,0,0,0,1.066.914,1.285,1.285,0,0,0,.158-.011,1.071,1.071,0,0,0,.913-1.212A40.465,40.465,0,0,0,2.085-.821,1.086,1.086,0,0,0,.768-1.589a1.07,1.07,0,0,0-.775,1.3" transform="translate(0.041 1.623)"/>
      </g>
      <g id="Group_231" data-name="Group 231" transform="translate(538.313 168.192)">
        <path id="Path_227" data-name="Path 227" class="cls-4" d="M0-.492A1.078,1.078,0,0,0,1.051.351,1.077,1.077,0,0,0,1.278.327q2.1-.448,4.231-1a1.067,1.067,0,0,0,.771-1.3,1.081,1.081,0,0,0-1.319-.762Q2.881-2.2.822-1.76A1.068,1.068,0,0,0,0-.492" transform="translate(0.029 2.782)"/>
      </g>
      <g id="Group_232" data-name="Group 232" transform="translate(529.822 169.976)">
        <path id="Path_228" data-name="Path 228" class="cls-4" d="M0-.368A1.076,1.076,0,0,0,1.072.6c.037,0,.072,0,.106,0C2.617.456,4.06.268,5.511.041a1.073,1.073,0,0,0,.9-1.225A1.081,1.081,0,0,0,5.17-2.07q-2.108.335-4.2.536A1.074,1.074,0,0,0,0-.368" transform="translate(0.006 2.082)"/>
      </g>
      <g id="Group_233" data-name="Group 233" transform="translate(529.984 141.381)">
        <path id="Path_229" data-name="Path 229" class="cls-4" d="M-.267-.163Q-.888,1.891-1.534,3.885a1.07,1.07,0,0,0,.7,1.344,1.141,1.141,0,0,0,.329.05,1.081,1.081,0,0,0,1.03-.743Q1.175,2.523,1.8.45A1.07,1.07,0,0,0,1.078-.881,1.091,1.091,0,0,0-.267-.163" transform="translate(1.586 0.923)"/>
      </g>
      <g id="Group_234" data-name="Group 234" transform="translate(532.444 133.171)">
        <path id="Path_230" data-name="Path 230" class="cls-4" d="M-.161-1.334A1.144,1.144,0,0,0,.126-1.3a1.077,1.077,0,0,0,1.041-.785q.566-2.04,1.11-4.134a1.068,1.068,0,0,0-.777-1.3,1.085,1.085,0,0,0-1.315.77q-.534,2.076-1.1,4.1A1.07,1.07,0,0,0-.161-1.334" transform="translate(0.955 7.548)"/>
      </g>
      <g id="Group_235" data-name="Group 235" transform="translate(506.475 65.693)">
        <path id="Path_231" data-name="Path 231" class="cls-4" d="M-.192-.458c1.4.169,2.794.4,4.139.7A1.132,1.132,0,0,0,4.18.266,1.078,1.078,0,0,0,5.235-.57a1.072,1.072,0,0,0-.82-1.275C3-2.156,1.537-2.4.065-2.577a1.088,1.088,0,0,0-1.2.933A1.069,1.069,0,0,0-.192-.458" transform="translate(1.142 2.589)"/>
      </g>
      <g id="Group_236" data-name="Group 236" transform="translate(488.833 206.337)">
        <path id="Path_232" data-name="Path 232" class="cls-4" d="M-.736-.058Q-2.341,1.35-3.976,2.676a1.059,1.059,0,0,0-.151,1.5,1.079,1.079,0,0,0,.836.392,1.078,1.078,0,0,0,.682-.242Q-.941,2.979.7,1.541A1.062,1.062,0,0,0,.789.032,1.088,1.088,0,0,0-.736-.058" transform="translate(4.372 0.327)"/>
      </g>
      <g id="Group_237" data-name="Group 237" transform="translate(442.869 230.352)">
        <path id="Path_233" data-name="Path 233" class="cls-4" d="M-1-.01C-2.141.311-3.282.608-4.419.9c-.238.062-.473.13-.706.189a1.067,1.067,0,0,0-.782,1.3,1.079,1.079,0,0,0,1.047.805,1.064,1.064,0,0,0,.18-.023.84.84,0,0,0,.086-.011Q-2.5,2.635-.406,2.044A1.067,1.067,0,0,0,.335.721,1.069,1.069,0,0,0-1-.01" transform="translate(5.94 0.055)"/>
      </g>
      <g id="Group_238" data-name="Group 238" transform="translate(473.318 138.177)">
        <path id="Path_234" data-name="Path 234" class="cls-4" d="M-.559-1.106A1.08,1.08,0,0,0,.3-.683,1.087,1.087,0,0,0,.953-.9,1.06,1.06,0,0,0,1.16-2.4Q-.158-4.12-1.362-5.8a1.08,1.08,0,0,0-1.5-.257,1.063,1.063,0,0,0-.26,1.488Q-1.9-2.856-.559-1.106" transform="translate(3.321 6.257)"/>
      </g>
      <g id="Group_239" data-name="Group 239" transform="translate(374.36 236.139)">
        <path id="Path_235" data-name="Path 235" class="cls-4" d="M-1.094-.016C-2.607-.048-4.049-.076-5.41-.091A1.046,1.046,0,0,0-6.5.964,1.074,1.074,0,0,0-5.436,2.046c1.356.015,2.79.043,4.3.075h.022A1.073,1.073,0,0,0-.039,1.076,1.074,1.074,0,0,0-1.094-.016" transform="translate(6.502 0.091)"/>
      </g>
      <g id="Group_240" data-name="Group 240" transform="translate(391.577 236.475)">
        <path id="Path_236" data-name="Path 236" class="cls-4" d="M-1.065-.006q-2.131,0-4.171-.026A1.037,1.037,0,0,0-6.328,1.024,1.075,1.075,0,0,0-5.262,2.1q2.054.026,4.2.026h.121A1.026,1.026,0,0,0,.077,1.063,1.128,1.128,0,0,0-1.065-.006" transform="translate(6.328 0.033)"/>
      </g>
      <g id="Group_241" data-name="Group 241" transform="translate(495.266 200.445)">
        <path id="Path_237" data-name="Path 237" class="cls-4" d="M-.678-.07q-1.5,1.534-3.016,2.976a1.06,1.06,0,0,0-.035,1.511,1.084,1.084,0,0,0,.779.329,1.082,1.082,0,0,0,.747-.3Q-.65,2.976.874,1.416A1.061,1.061,0,0,0,.849-.094,1.089,1.089,0,0,0-.678-.07" transform="translate(4.028 0.394)"/>
      </g>
      <g id="Group_242" data-name="Group 242" transform="translate(382.972 236.314)">
        <path id="Path_238" data-name="Path 238" class="cls-4" d="M-1.093-.021l-4.3-.1A1.115,1.115,0,0,0-6.5.926,1.074,1.074,0,0,0-5.443,2.02l4.307.1h.022A1.078,1.078,0,0,0-.035,1.069,1.075,1.075,0,0,0-1.093-.021" transform="translate(6.497 0.117)"/>
      </g>
      <g id="Group_243" data-name="Group 243" transform="translate(400.189 236.374)">
        <path id="Path_239" data-name="Path 239" class="cls-4" d="M0-.253A1.056,1.056,0,0,0,.848.756,1.045,1.045,0,0,0,1.08.8h.015Q3.222.775,5.421.706a1.073,1.073,0,0,0,1.045-1.1A1.074,1.074,0,0,0,5.386-1.43H5.354c-1.4.043-2.767.072-4.121.09-.054,0-.112,0-.168,0A1.074,1.074,0,0,0,0-.253" transform="translate(0 1.43)"/>
      </g>
      <g id="Group_244" data-name="Group 244" transform="translate(501.239 194.099)">
        <path id="Path_240" data-name="Path 240" class="cls-4" d="M-.926-.053a1.089,1.089,0,0,0-1.52.14Q-3.822,1.727-5.226,3.28a1.06,1.06,0,0,0,.082,1.509,1.082,1.082,0,0,0,.721.273,1.081,1.081,0,0,0,.8-.355Q-2.185,3.123-.785,1.452a1.059,1.059,0,0,0-.141-1.5" transform="translate(5.503 0.298)"/>
      </g>
      <g id="Group_245" data-name="Group 245" transform="translate(578.824 153.344)">
        <path id="Path_241" data-name="Path 241" class="cls-4" d="M-.948-.016Q-2.966.77-4.957,1.564a1.067,1.067,0,0,0-.6,1.39,1.081,1.081,0,0,0,1,.67,1.107,1.107,0,0,0,.4-.077q1.985-.789,3.992-1.572A1.07,1.07,0,0,0,.453.589a1.09,1.09,0,0,0-1.4-.605" transform="translate(5.635 0.089)"/>
      </g>
      <g id="Group_246" data-name="Group 246" transform="translate(586.838 150.324)">
        <path id="Path_242" data-name="Path 242" class="cls-4" d="M-.96-.014q-2.034.732-4.051,1.49a1.071,1.071,0,0,0-.625,1.379,1.086,1.086,0,0,0,1.011.689,1.125,1.125,0,0,0,.384-.069q2-.755,4.02-1.482A1.064,1.064,0,0,0,.424.625,1.083,1.083,0,0,0-.96-.014" transform="translate(5.705 0.078)"/>
      </g>
      <g id="Group_247" data-name="Group 247" transform="translate(570.843 156.514)">
        <path id="Path_243" data-name="Path 243" class="cls-4" d="M-.942-.018-4.93,1.591a1.068,1.068,0,0,0-.591,1.395,1.079,1.079,0,0,0,1,.664,1.072,1.072,0,0,0,.408-.08L-.128,1.961A1.064,1.064,0,0,0,.465.569,1.079,1.079,0,0,0-.942-.018" transform="translate(5.601 0.1)"/>
      </g>
      <g id="Group_248" data-name="Group 248" transform="translate(546.642 165.741)">
        <path id="Path_244" data-name="Path 244" class="cls-4" d="M-.978-.012Q-3.021.668-5.043,1.276a1.064,1.064,0,0,0-.721,1.331,1.078,1.078,0,0,0,1.032.76,1.087,1.087,0,0,0,.314-.046c1.368-.409,2.746-.847,4.13-1.3A1.071,1.071,0,0,0,.391.663,1.088,1.088,0,0,0-.978-.012" transform="translate(5.812 0.066)"/>
      </g>
      <g id="Group_249" data-name="Group 249" transform="translate(562.855 159.728)">
        <path id="Path_245" data-name="Path 245" class="cls-4" d="M-.946-.017q-2.007.8-3.992,1.582A1.064,1.064,0,0,0-5.544,2.95a1.08,1.08,0,0,0,1,.677,1.034,1.034,0,0,0,.4-.076q2-.779,4.009-1.586A1.065,1.065,0,0,0,.46.573,1.086,1.086,0,0,0-.946-.017" transform="translate(5.62 0.095)"/>
      </g>
      <g id="Group_250" data-name="Group 250" transform="translate(554.807 162.855)">
        <path id="Path_246" data-name="Path 246" class="cls-4" d="M-.957-.014q-2.017.761-4.02,1.478a1.067,1.067,0,0,0-.648,1.368,1.079,1.079,0,0,0,1.015.706,1.12,1.12,0,0,0,.368-.063q2.014-.72,4.052-1.49A1.065,1.065,0,0,0,.433.606,1.089,1.089,0,0,0-.957-.014" transform="translate(5.69 0.081)"/>
      </g>
      <g id="Group_251" data-name="Group 251" transform="translate(490.262 157.397)">
        <path id="Path_247" data-name="Path 247" class="cls-4" d="M-1.023-.629Q-2.659-1.878-4.289-3.294a1.084,1.084,0,0,0-1.522.1,1.059,1.059,0,0,0,.1,1.507c1.12.979,2.247,1.9,3.369,2.752a1.085,1.085,0,0,0,.661.223A1.079,1.079,0,0,0-.831.869a1.06,1.06,0,0,0-.192-1.5" transform="translate(6.081 3.561)"/>
      </g>
      <g id="Group_252" data-name="Group 252" transform="translate(462.689 82.801)">
        <path id="Path_248" data-name="Path 248" class="cls-4" d="M-.123-1.227a1.083,1.083,0,0,0,.472.109,1.079,1.079,0,0,0,.971-.6A31.188,31.188,0,0,1,3.392-5.284a1.064,1.064,0,0,0-.3-1.482,1.084,1.084,0,0,0-1.5.3A33.272,33.272,0,0,0-.619-2.657a1.065,1.065,0,0,0,.5,1.429" transform="translate(0.729 6.945)"/>
      </g>
      <g id="Group_253" data-name="Group 253" transform="translate(459.945 90.43)">
        <path id="Path_249" data-name="Path 249" class="cls-4" d="M-.176-1.336a1.028,1.028,0,0,0,.214.021,1.076,1.076,0,0,0,1.055-.859A32.181,32.181,0,0,1,2.167-6.153a1.065,1.065,0,0,0-.675-1.354,1.09,1.09,0,0,0-1.369.669A33.748,33.748,0,0,0-1.021-2.593,1.066,1.066,0,0,0-.176-1.336" transform="translate(1.043 7.562)"/>
      </g>
      <g id="Group_254" data-name="Group 254" transform="translate(459.248 224.594)">
        <path id="Path_250" data-name="Path 250" class="cls-4" d="M-.219-.812a1.09,1.09,0,0,0,.4-.075q2-.792,4.007-1.662a1.064,1.064,0,0,0,.551-1.409A1.081,1.081,0,0,0,3.311-4.5Q1.351-3.65-.618-2.874a1.067,1.067,0,0,0-.6,1.389,1.079,1.079,0,0,0,1,.673" transform="translate(1.299 4.596)"/>
      </g>
      <g id="Group_255" data-name="Group 255" transform="translate(459.251 98.747)">
        <path id="Path_251" data-name="Path 251" class="cls-4" d="M-.223-1.373h.035a1.074,1.074,0,0,0,1.045-1.1C.844-2.921.835-3.361.835-3.8q0-1.437.106-2.817a1.074,1.074,0,0,0-1-1.146,1.068,1.068,0,0,0-1.159.987C-1.285-5.8-1.324-4.81-1.324-3.8c0,.457.009.922.022,1.39A1.076,1.076,0,0,0-.223-1.373" transform="translate(1.324 7.768)"/>
      </g>
      <g id="Group_256" data-name="Group 256" transform="translate(467.123 220.872)">
        <path id="Path_252" data-name="Path 252" class="cls-4" d="M-.218-.874A1.076,1.076,0,0,0,.254-.983Q2.2-1.916,4.125-2.932A1.065,1.065,0,0,0,4.57-4.379a1.082,1.082,0,0,0-1.461-.44C1.848-4.152.58-3.518-.691-2.9a1.062,1.062,0,0,0-.5,1.428,1.083,1.083,0,0,0,.97.6" transform="translate(1.297 4.946)"/>
      </g>
      <g id="Group_257" data-name="Group 257" transform="translate(468.636 131.026)">
        <path id="Path_253" data-name="Path 253" class="cls-4" d="M-.107-.032a1.06,1.06,0,0,0-.38,1.463Q.594,3.244,1.806,5.093A1.086,1.086,0,0,0,3.3,5.407a1.064,1.064,0,0,0,.315-1.478Q2.426,2.116,1.371.346A1.084,1.084,0,0,0-.107-.032" transform="translate(0.639 0.181)"/>
      </g>
      <g id="Group_258" data-name="Group 258" transform="translate(467.437 76.368)">
        <path id="Path_254" data-name="Path 254" class="cls-4" d="M-.219-1.113A1.083,1.083,0,0,0,.6-1.482,34.964,34.964,0,0,1,3.512-4.437a1.062,1.062,0,0,0,.072-1.511,1.091,1.091,0,0,0-1.526-.071A37.123,37.123,0,0,0-1.035-2.88,1.059,1.059,0,0,0-.926-1.374a1.081,1.081,0,0,0,.708.261" transform="translate(1.299 6.296)"/>
      </g>
      <g id="Group_259" data-name="Group 259" transform="translate(451.146 227.75)">
        <path id="Path_255" data-name="Path 255" class="cls-4" d="M-.011-.593A1.077,1.077,0,0,0,1.017.149,1.114,1.114,0,0,0,1.348.1Q3.4-.556,5.456-1.283a1.069,1.069,0,0,0,.652-1.368,1.087,1.087,0,0,0-1.382-.643Q2.709-2.579.685-1.937a1.065,1.065,0,0,0-.7,1.344" transform="translate(0.063 3.355)"/>
      </g>
      <g id="Group_260" data-name="Group 260" transform="translate(464.629 123.491)">
        <path id="Path_256" data-name="Path 256" class="cls-4" d="M-.411-1.156a1.082,1.082,0,0,0,.957.57,1.087,1.087,0,0,0,.5-.123A1.063,1.063,0,0,0,1.5-2.154Q.483-4.066-.383-5.922a1.085,1.085,0,0,0-1.434-.522,1.064,1.064,0,0,0-.526,1.419q.891,1.907,1.932,3.869" transform="translate(2.443 6.542)"/>
      </g>
      <g id="Group_261" data-name="Group 261" transform="translate(459.641 107.245)">
        <path id="Path_257" data-name="Path 257" class="cls-4" d="M-.586-1.079c-.315-1.383-.57-2.76-.751-4.1a1.068,1.068,0,0,0-1.211-.916,1.067,1.067,0,0,0-.927,1.2c.19,1.4.453,2.84.784,4.284A1.079,1.079,0,0,0-1.638.225,1.04,1.04,0,0,0-1.4.2,1.063,1.063,0,0,0-.586-1.079" transform="translate(3.485 6.107)"/>
      </g>
      <g id="Group_262" data-name="Group 262" transform="translate(461.528 115.549)">
        <path id="Path_258" data-name="Path 258" class="cls-4" d="M-.3-1.176A1.079,1.079,0,0,0,.7-.5a1.083,1.083,0,0,0,.39-.072,1.064,1.064,0,0,0,.614-1.384C1.19-3.269.721-4.6.313-5.9a1.08,1.08,0,0,0-1.352-.7,1.065,1.065,0,0,0-.71,1.337C-1.326-3.918-.84-2.541-.3-1.176" transform="translate(1.798 6.653)"/>
      </g>
      <g id="Group_263" data-name="Group 263" transform="translate(425.961 234.039)">
        <path id="Path_259" data-name="Path 259" class="cls-4" d="M-1.045,0Q-3.172.34-5.278.625A1.069,1.069,0,0,0-6.2,1.83a1.077,1.077,0,0,0,1.067.923,1.142,1.142,0,0,0,.149-.011Q-2.855,2.454-.7,2.106A1.069,1.069,0,0,0,.195.882,1.079,1.079,0,0,0-1.045,0" transform="translate(6.209 0.019)"/>
      </g>
      <g id="Group_264" data-name="Group 264" transform="translate(417.4 235.195)">
        <path id="Path_260" data-name="Path 260" class="cls-4" d="M-1.061,0C-2.494.159-3.914.3-5.323.424A1.07,1.07,0,0,0-6.3,1.584a1.072,1.072,0,0,0,1.073.972c.034,0,.064,0,.1,0Q-3,2.363-.821,2.122A1.074,1.074,0,0,0,.131.941,1.1,1.1,0,0,0-1.061,0" transform="translate(6.304 0.009)"/>
      </g>
      <g id="Group_265" data-name="Group 265" transform="translate(434.459 232.438)">
        <path id="Path_261" data-name="Path 261" class="cls-4" d="M-1.024,0Q-3.123.457-5.21.85A1.069,1.069,0,0,0-6.067,2.1a1.078,1.078,0,0,0,1.057.868,1.079,1.079,0,0,0,.205-.02q2.115-.4,4.249-.865A1.072,1.072,0,0,0,.264.807,1.082,1.082,0,0,0-1.024,0" transform="translate(6.086 0.028)"/>
      </g>
      <g id="Gruppe_141" data-name="Gruppe 141" transform="translate(408.802 235.954)">
        <path id="Path_262" data-name="Path 262" class="cls-4" d="M-1.073,0Q-3.237.147-5.352.246a1.072,1.072,0,0,0-1.026,1.12A1.074,1.074,0,0,0-5.3,2.381c.017,0,.037,0,.054,0q2.133-.1,4.322-.248A1.074,1.074,0,0,0,.08.992,1.073,1.073,0,0,0-1.073,0" transform="translate(6.378 0.008)"/>
      </g>
    </g>
    <g id="Rakete" transform="translate(47 53)">
      <g id="Group_1" data-name="Group 1" transform="translate(617.712 1.084)">
        <path id="Path_1" data-name="Path 1" class="cls-3" d="M-3.732-.015c-3.664-.86-8.1,5.791-10.1,12.256-1.016,3.275-1.081,8.654-.813,13.855-1.184.264-3.458,1.4-4.531,6.232-1.477,6.63-3,12.928-3,12.928S-16.651,34.3-14.1,33.182c.43,4.284.907,7.428.907,7.428s.006.045.012.091c.028-.038.052-.075.052-.075s1.812-2.613,4.087-6.27c1.8,2.125,1.935,14.4,1.935,14.4s1.4-6.325,3-12.928c1.162-4.807-.379-6.833-1.325-7.591,2.532-4.551,4.84-9.411,5.371-12.8C.987,8.75-.065.826-3.732-.015" transform="translate(22.182 0.091)"/>
      </g>
      <g id="Group_2" data-name="Group 2" transform="translate(616.632 0)">
        <path id="Path_2" data-name="Path 2" class="cls-4" d="M-4.478-3.327c-.816,5.2-6.079,14.178-9.637,19.789l1.833-7.888a1.082,1.082,0,0,0-.808-1.3,1.085,1.085,0,0,0-1.3.808l-1.832,7.891c-.719-6.582-1.492-16.982.067-22.012,1.951-6.3,5.842-11.57,8.424-11.57a1.818,1.818,0,0,1,.4.044.008.008,0,0,0,.007,0c2.563.588,3.921,7.372,2.845,14.233m-4.031,20.3c-.449,1.862-.885,3.7-1.278,5.385a22.836,22.836,0,0,0-1.341-6.591c.806-1.3,1.65-2.721,2.5-4.2.487.991.788,2.646.121,5.405M-22.7,19.366c.388-1.684.809-3.529,1.226-5.4.615-2.769,1.619-4.12,2.487-4.8.111,1.7.246,3.341.4,4.868A22.771,22.771,0,0,0-22.7,19.366m15.859-39.03c-4.453-1.054-9.179,5.912-11.371,12.987-1,3.243-1.125,8.369-.9,13.415-1.414.62-3.472,2.283-4.467,6.759-1.472,6.618-2.994,12.905-3,12.907a1.078,1.078,0,0,0,.675,1.268,1.068,1.068,0,0,0,.373.067,1.077,1.077,0,0,0,.963-.593,69.532,69.532,0,0,1,6.26-10.358c.309,2.74.591,4.689.678,5.271l-1.567,6.76a1.078,1.078,0,0,0,.807,1.3,1.081,1.081,0,0,0,.245.027,1.082,1.082,0,0,0,1.051-.834l1.569-6.757c.261-.378,1.4-2.033,2.931-4.435a69.552,69.552,0,0,1,1.056,12.056,1.08,1.08,0,0,0,.969,1.06,1.007,1.007,0,0,0,.111.006A1.083,1.083,0,0,0-9.4,30.393S-8,24.074-6.41,17.484c1.073-4.439-.019-6.842-1.03-8.037C-5.022,5.017-2.872.361-2.345-2.993c1.147-7.318-.038-15.647-4.5-16.67" transform="translate(26.613 19.77)"/>
      </g>
    </g>
  </g>
</svg>
