<svg xmlns="http://www.w3.org/2000/svg" viewBox="0 0 509.9 169.98"><defs><style>.cls-1{fill:#ff5c00;}.cls-2{fill:#0055a9;}</style></defs><title>fiducia</title><g id="Layer_2" data-name="Layer 2"><g id="Ebene_1" data-name="Ebene 1"><path class="cls-1" d="M425.67,27.42a2.36,2.36,0,0,0-3.34,0L419,30.74a2.36,2.36,0,0,0,0,3.34l16.71,16.7a2.36,2.36,0,0,0,3.34,0L482.46,7.37a2.37,2.37,0,0,0,0-3.34L479.12.69a2.37,2.37,0,0,0-3.34,0L437.36,39.11Z"/><path class="cls-2" d="M509.17,7.4a2.36,2.36,0,0,0,0-3.34L505.83.72a2.36,2.36,0,0,0-3.34,0L459.11,44.09a2.37,2.37,0,0,0,0,3.34l3.34,3.34a2.36,2.36,0,0,0,3.34,0Z"/><path class="cls-2" d="M509.21,34.08a2.37,2.37,0,0,0,0-3.34l-3.34-3.34a2.36,2.36,0,0,0-3.34,0L472.47,57.45a2.37,2.37,0,0,0,0,3.34l3.34,3.34a2.36,2.36,0,0,0,3.34,0Z"/><path class="cls-2" d="M509.21,60.81a2.37,2.37,0,0,0,0-3.34l-3.34-3.34a2.36,2.36,0,0,0-3.34,0L485.83,70.82a2.36,2.36,0,0,0,0,3.34l3.34,3.34a2.36,2.36,0,0,0,3.34,0Z"/><path class="cls-2" d="M30.88,100.76a1.45,1.45,0,0,1-1,.44h-23v24.58a1.54,1.54,0,0,1-1.5,1.5H1.5a1.44,1.44,0,0,1-1-.45,1.43,1.43,0,0,1-.45-1V85Q0,77.52,4,74.3t12-3.22q1.64,0,3.71,0l4.08.08q2,0,3.82.15l3,.19a.82.82,0,0,1,.56.37,1.25,1.25,0,0,1,.19.67v3.75c0,.6-.28.9-.82.9H16a22.4,22.4,0,0,0-4.8.41A5.79,5.79,0,0,0,8.47,79a4.72,4.72,0,0,0-1.31,2.44A16.57,16.57,0,0,0,6.82,85V95.43h23a1.46,1.46,0,0,1,1,.44,1.42,1.42,0,0,1,.45,1v2.81A1.41,1.41,0,0,1,30.88,100.76Z"/><path class="cls-2" d="M51.27,126.84a1.21,1.21,0,0,1-1,.45H46.17a1.21,1.21,0,0,1-1-.45,1.58,1.58,0,0,1-.37-1V73a1.44,1.44,0,0,1,.37-1,1.26,1.26,0,0,1,1-.41h4.12a1.26,1.26,0,0,1,1,.41,1.45,1.45,0,0,1,.38,1v52.76A1.59,1.59,0,0,1,51.27,126.84Z"/><path class="cls-2" d="M106.8,104.5a30.48,30.48,0,0,1-1.61,10.42,18.84,18.84,0,0,1-4.57,7.27,18.52,18.52,0,0,1-7.16,4.24,29.74,29.74,0,0,1-9.37,1.39q-2.17,0-4.23-.07t-3.9-.19l-3.26-.22q-1.43-.11-2.25-.26a1.68,1.68,0,0,1-1.57-1.87V73.7a1.68,1.68,0,0,1,1.57-1.87q.82-.15,2.25-.26L76,71.34q1.84-.11,3.9-.19t4.23-.07a30.51,30.51,0,0,1,9.37,1.35,18,18,0,0,1,7.16,4.24,19.26,19.26,0,0,1,4.57,7.27,30.4,30.4,0,0,1,1.61,10.46ZM100,94.34a25.05,25.05,0,0,0-1.23-8.48,13.56,13.56,0,0,0-3.36-5.37,12.09,12.09,0,0,0-5-2.81,22.54,22.54,0,0,0-6.24-.83q-2.62,0-4.52,0t-3.77.19v44.74q1.79.15,3.74.15h4.56a22.54,22.54,0,0,0,6.24-.83,11.93,11.93,0,0,0,5-2.85,13.93,13.93,0,0,0,3.36-5.37,24.73,24.73,0,0,0,1.23-8.45Z"/><path class="cls-2" d="M153.6,122.79q-5.07,5-14.16,5t-14.19-5q-5-5-5-15.74V73a1.36,1.36,0,0,1,.42-1,1.4,1.4,0,0,1,1-.41h4.09a1.4,1.4,0,0,1,1,.41,1.37,1.37,0,0,1,.42,1V107.1a31,31,0,0,0,.6,6.42,11.35,11.35,0,0,0,2.05,4.69,9.17,9.17,0,0,0,3.77,2.85,17.77,17.77,0,0,0,11.62,0,9.14,9.14,0,0,0,3.81-2.85,11.41,11.41,0,0,0,2.05-4.65,31.11,31.11,0,0,0,.6-6.46V73a1.37,1.37,0,0,1,.42-1,1.4,1.4,0,0,1,1-.41h4.09a1.4,1.4,0,0,1,1,.41,1.37,1.37,0,0,1,.42,1v34Q158.67,117.77,153.6,122.79Z"/><path class="cls-2" d="M205.58,126.35a2.89,2.89,0,0,1-1,.49q-1.2.23-2.4.41t-2.62.3c-1,.08-2,.14-3.22.19s-2.6.07-4.2.07a24.29,24.29,0,0,1-7-1,15.88,15.88,0,0,1-6.37-3.71,19.57,19.57,0,0,1-4.65-7.12,30.39,30.39,0,0,1-1.8-11.28V94.23a30.64,30.64,0,0,1,1.8-11.35,19.22,19.22,0,0,1,4.65-7.08,16.12,16.12,0,0,1,6.37-3.67,24.33,24.33,0,0,1,7-1,55.1,55.1,0,0,1,6.86.41q3.26.41,5.74.79,1.2.15,1.2,1v3.82a1.06,1.06,0,0,1-.15.6c-.1.15-.35.23-.75.23h-.23l-2.51-.19-3.15-.23c-1.12-.07-2.29-.14-3.49-.19s-2.35-.07-3.45-.07a14.86,14.86,0,0,0-5.13.86,10.08,10.08,0,0,0-4.12,2.85,14.08,14.08,0,0,0-2.77,5.25,27.51,27.51,0,0,0-1,8.06v10.42a27.21,27.21,0,0,0,1,8,14.09,14.09,0,0,0,2.77,5.25,10.4,10.4,0,0,0,4.12,2.88,14.28,14.28,0,0,0,5.13.9q1.57,0,3.34-.08l3.45-.15q1.69-.07,3.11-.19l2.47-.19h.3a1.06,1.06,0,0,1,1.2,1.2v3.07A1.19,1.19,0,0,1,205.58,126.35Z"/><path class="cls-2" d="M227.17,126.84a1.21,1.21,0,0,1-1,.45h-4.12a1.21,1.21,0,0,1-1-.45,1.58,1.58,0,0,1-.37-1V73a1.44,1.44,0,0,1,.37-1,1.26,1.26,0,0,1,1-.41h4.12a1.26,1.26,0,0,1,1,.41,1.45,1.45,0,0,1,.38,1v52.76A1.59,1.59,0,0,1,227.17,126.84Z"/><path class="cls-2" d="M282.93,126.09q0,1.2-1.27,1.2h-4.42a1,1,0,0,1-.82-.34,2.25,2.25,0,0,1-.45-.79l-4.87-17.24H251.68l-4.8,17.24a1.85,1.85,0,0,1-.52.79,1.21,1.21,0,0,1-.83.34h-4.42q-1.27,0-1.27-1.2a1.29,1.29,0,0,1,.07-.52l13.87-48.79A7.51,7.51,0,0,1,255.09,74,7.26,7.26,0,0,1,257,72.24a7.44,7.44,0,0,1,2.21-.9,10.15,10.15,0,0,1,2.21-.26,11,11,0,0,1,2.17.22,6.7,6.7,0,0,1,2.17.86,7.27,7.27,0,0,1,1.91,1.72A7.53,7.53,0,0,1,269,76.7l13.86,48.87A1.26,1.26,0,0,1,282.93,126.09ZM262.84,78.35Q262.47,77,261.42,77t-1.5,1.35L253.1,103h16.56Z"/><path class="cls-2" d="M346,126.67q-2.77.46-6.18.8t-8.73.34a20.84,20.84,0,0,1-7-1.24,16.57,16.57,0,0,1-6.22-4,20.43,20.43,0,0,1-4.46-7.2,30.35,30.35,0,0,1-1.72-10.91v-10a30.7,30.7,0,0,1,1.8-11.32,19.88,19.88,0,0,1,4.65-7.2,16,16,0,0,1,6.44-3.79,24.78,24.78,0,0,1,7.2-1.09q5.25,0,8.66.34t5.58.71a2.39,2.39,0,0,1,.9.3.88.88,0,0,1,.38.82V77q0,.75-1,.75H346l-3.18-.26q-1.54-.11-3.19-.15l-3.56-.08q-1.91,0-4.31,0a16,16,0,0,0-5,.79,9.93,9.93,0,0,0-4.23,2.77,14.17,14.17,0,0,0-2.92,5.31,27.27,27.27,0,0,0-1.09,8.34v10a27.85,27.85,0,0,0,1,7.89,15.16,15.16,0,0,0,2.7,5.35,10.13,10.13,0,0,0,4,3,12.83,12.83,0,0,0,4.91.94q3.45,0,5.77-.15t3.67-.3V99.78a1.58,1.58,0,0,1,.37-1,1.21,1.21,0,0,1,1-.45h4a1.32,1.32,0,0,1,1,.45,1.51,1.51,0,0,1,.41,1V125A1.49,1.49,0,0,1,346,126.67Z"/><path class="cls-2" d="M403.53,126.09q0,1.2-1.27,1.2h-4.42A1,1,0,0,1,397,127a2.22,2.22,0,0,1-.45-.79l-4.87-17.24H372.27l-4.8,17.24a1.85,1.85,0,0,1-.53.79,1.2,1.2,0,0,1-.82.34H361.7q-1.27,0-1.27-1.2a1.27,1.27,0,0,1,.07-.52l13.87-48.79A7.51,7.51,0,0,1,375.68,74a7.26,7.26,0,0,1,1.91-1.72,7.43,7.43,0,0,1,2.21-.9,10.15,10.15,0,0,1,2.21-.26,11,11,0,0,1,2.17.22,6.69,6.69,0,0,1,2.17.86,7.3,7.3,0,0,1,1.91,1.72,7.54,7.54,0,0,1,1.31,2.81l13.87,48.87A1.27,1.27,0,0,1,403.53,126.09ZM383.44,78.35Q383.07,77,382,77t-1.5,1.35L373.7,103h16.56Z"/><path class="cls-2" d="M453.44,104.5a30.48,30.48,0,0,1-1.61,10.42,18.84,18.84,0,0,1-4.57,7.27,18.53,18.53,0,0,1-7.16,4.24,29.73,29.73,0,0,1-9.37,1.39q-2.17,0-4.23-.07t-3.9-.19l-3.26-.22q-1.42-.11-2.25-.26a1.68,1.68,0,0,1-1.57-1.87V73.7a1.68,1.68,0,0,1,1.57-1.87q.82-.15,2.25-.26l3.26-.23q1.83-.11,3.9-.19t4.23-.07a30.5,30.5,0,0,1,9.37,1.35,18,18,0,0,1,7.16,4.24,19.26,19.26,0,0,1,4.57,7.27,30.41,30.41,0,0,1,1.61,10.46Zm-6.82-10.16a25,25,0,0,0-1.23-8.48A13.56,13.56,0,0,0,442,80.49a12.09,12.09,0,0,0-5-2.81,22.52,22.52,0,0,0-6.24-.83q-2.62,0-4.52,0t-3.77.19v44.74q1.79.15,3.74.15h4.56a22.52,22.52,0,0,0,6.24-.83,11.93,11.93,0,0,0,5-2.85,13.93,13.93,0,0,0,3.36-5.37,24.71,24.71,0,0,0,1.23-8.45Z"/><path class="cls-1" d="M82.71,169.58a.54.54,0,0,1-.4.17H69.9a2,2,0,0,1-1-.24.86.86,0,0,1-.41-.81v-1.56a1.88,1.88,0,0,1,.07-.51,1.84,1.84,0,0,1,.3-.57l9-13.5a.41.41,0,0,0,.08-.25c0-.15-.09-.23-.28-.23h-7.9q-.54,0-.54-.51v-2.38a.48.48,0,0,1,.54-.54H81.18a2.1,2.1,0,0,1,1.07.25.88.88,0,0,1,.44.82v1.65a1.71,1.71,0,0,1-.11.61,2.79,2.79,0,0,1-.28.55L73.42,165.8a.5.5,0,0,0-.11.31c0,.11.08.17.25.17h8.75a.6.6,0,0,1,.4.14.45.45,0,0,1,.17.37v2.39A.55.55,0,0,1,82.71,169.58Z"/><path class="cls-1" d="M107.22,165.74a5.93,5.93,0,0,1-4.09,3.82,12.17,12.17,0,0,1-6.28,0,5.92,5.92,0,0,1-4.09-3.82,10.79,10.79,0,0,1-.58-3.81V149.18a.5.5,0,0,1,.17-.38.57.57,0,0,1,.4-.16h2.81a.58.58,0,0,1,.4.16.5.5,0,0,1,.17.38V162a11.53,11.53,0,0,0,.17,2.12,3.62,3.62,0,0,0,.61,1.49,2.6,2.6,0,0,0,1.18.88,6.47,6.47,0,0,0,3.79,0,2.59,2.59,0,0,0,1.19-.88,3.61,3.61,0,0,0,.61-1.49,11.53,11.53,0,0,0,.17-2.12V149.18a.5.5,0,0,1,.17-.38.58.58,0,0,1,.4-.16h2.81a.57.57,0,0,1,.4.16.5.5,0,0,1,.17.38v12.76A10.79,10.79,0,0,1,107.22,165.74Z"/><path class="cls-1" d="M133.43,169.5c0,.17-.14.26-.43.26H129.2a.71.71,0,0,1-.65-.31L122,159.75v9.43a.58.58,0,0,1-.57.57h-2.81a.55.55,0,0,1-.4-.17.55.55,0,0,1-.17-.4v-20a.5.5,0,0,1,.17-.38.57.57,0,0,1,.4-.16h2.81a.57.57,0,0,1,.4.16.5.5,0,0,1,.17.38v9l7-9.35a.52.52,0,0,1,.27-.18,1.48,1.48,0,0,1,.38,0h3.24c.36,0,.54.11.54.34a.77.77,0,0,1-.2.45L126,158.87l7.33,10.28A.78.78,0,0,1,133.43,169.5Z"/><path class="cls-1" d="M157.43,165.74a6.27,6.27,0,0,1-1.62,2.47,6.19,6.19,0,0,1-2.47,1.35,12.16,12.16,0,0,1-6.28,0,6.2,6.2,0,0,1-2.47-1.35,6.28,6.28,0,0,1-1.62-2.47,10.84,10.84,0,0,1-.58-3.81V149.18a.5.5,0,0,1,.17-.38.57.57,0,0,1,.4-.16h2.81a.57.57,0,0,1,.4.16.5.5,0,0,1,.17.38V162a11.52,11.52,0,0,0,.17,2.12,3.62,3.62,0,0,0,.61,1.49,2.59,2.59,0,0,0,1.18.88,6.47,6.47,0,0,0,3.79,0,2.58,2.58,0,0,0,1.19-.88,3.6,3.6,0,0,0,.61-1.49,11.53,11.53,0,0,0,.17-2.12V149.18a.5.5,0,0,1,.17-.38.58.58,0,0,1,.4-.16h2.81a.57.57,0,0,1,.4.16.5.5,0,0,1,.17.38v12.76A10.79,10.79,0,0,1,157.43,165.74Z"/><path class="cls-1" d="M184.51,169.43a1.1,1.1,0,0,1-.81.33h-2.87a3.4,3.4,0,0,1-1-.13q-.44-.13-.78-.9l-6.31-13.84c-.08-.15-.16-.23-.26-.23s-.14.08-.14.23v14.29a.58.58,0,0,1-.16.4.5.5,0,0,1-.38.17h-2.41a.58.58,0,0,1-.57-.57V149.78a1.11,1.11,0,0,1,1.14-1.14h3.07a1.35,1.35,0,0,1,.72.17,1.71,1.71,0,0,1,.53.74l6.62,14.6c.06.15.13.23.23.23s.14-.09.14-.25V149.18a.48.48,0,0,1,.54-.54h2.44a.48.48,0,0,1,.54.54v19.43A1.11,1.11,0,0,1,184.51,169.43Z"/><path class="cls-1" d="M208.22,151.62a.54.54,0,0,1-.4.17H202a2.39,2.39,0,0,0-1.75.51,2.8,2.8,0,0,0-.5,1.93v3.07h7.7a.58.58,0,0,1,.57.57v2a.58.58,0,0,1-.57.57h-7.7v8.7a.58.58,0,0,1-.57.57h-2.8a.58.58,0,0,1-.57-.57V154.24a7.19,7.19,0,0,1,.52-3,4.33,4.33,0,0,1,1.4-1.78,5.15,5.15,0,0,1,2.08-.87,13.91,13.91,0,0,1,2.59-.23q1.28,0,2.15,0t1.48.1c.41,0,.75.08,1,.13l.75.13a1,1,0,0,1,.44.17.56.56,0,0,1,.13.43v1.82A.55.55,0,0,1,208.22,151.62Z"/><path class="cls-1" d="M229.24,151.79a.61.61,0,0,1-.4.14h-5v17.25a.58.58,0,0,1-.57.57h-2.81a.54.54,0,0,1-.4-.17.55.55,0,0,1-.17-.4V151.94h-5a.6.6,0,0,1-.4-.14.46.46,0,0,1-.17-.37v-2.24a.5.5,0,0,1,.17-.38.57.57,0,0,1,.4-.16h13.89a.58.58,0,0,1,.4.16.51.51,0,0,1,.17.38v2.24A.46.46,0,0,1,229.24,151.79Z"/><path class="cls-1" d="M250.36,164a6.48,6.48,0,0,1-.37,2.15,4.81,4.81,0,0,1-1.23,1.9,6.45,6.45,0,0,1-2.3,1.37,10.48,10.48,0,0,1-3.57.53,24.18,24.18,0,0,1-2.81-.14,21.73,21.73,0,0,1-2.22-.37.89.89,0,0,1-.38-.2.48.48,0,0,1-.16-.37v-2a.53.53,0,0,1,.54-.54h.06c.28,0,.66.07,1.12.1l1.43.08,1.41.07,1.07,0a3.86,3.86,0,0,0,2.6-.66,2.48,2.48,0,0,0,.7-1.9,2.28,2.28,0,0,0-.12-.75,1.89,1.89,0,0,0-.4-.64A4.86,4.86,0,0,0,245,162c-.3-.22-.69-.47-1.16-.75L240.07,159a9.59,9.59,0,0,1-1.63-1.19,5.78,5.78,0,0,1-1-1.24,4.51,4.51,0,0,1-.54-1.34,6.57,6.57,0,0,1-.16-1.43,6.17,6.17,0,0,1,.37-2.16,4.15,4.15,0,0,1,1.21-1.72,5.83,5.83,0,0,1,2.19-1.12,12,12,0,0,1,3.34-.4c.47,0,1,0,1.5,0s1.05.07,1.56.13l1.39.17c.42.06.75.11,1,.17a.85.85,0,0,1,.37.18.46.46,0,0,1,.14.36v2.1a.53.53,0,0,1-.13.37.45.45,0,0,1-.36.14h-.06q-1.42-.14-2.81-.21t-2.79-.07a3.87,3.87,0,0,0-2.29.52,1.76,1.76,0,0,0-.69,1.49,1.94,1.94,0,0,0,.1.64,1.69,1.69,0,0,0,.37.6,4.08,4.08,0,0,0,.72.61,12.62,12.62,0,0,0,1.14.68l3.41,1.9a11.7,11.7,0,0,1,1.93,1.32,6.23,6.23,0,0,1,1.21,1.38,5.12,5.12,0,0,1,.63,1.48A7,7,0,0,1,250.36,164Z"/><path class="cls-1" d="M272.36,169.41a.91.91,0,0,1-.44.17l-.75.13c-.28,0-.62.09-1,.13s-.9.07-1.48.1-1.29,0-2.15,0a13.91,13.91,0,0,1-2.59-.23,5.14,5.14,0,0,1-2.08-.87,4.31,4.31,0,0,1-1.4-1.78,7.17,7.17,0,0,1-.52-3v-9.92a7.18,7.18,0,0,1,.52-3,4.32,4.32,0,0,1,1.4-1.78,5.15,5.15,0,0,1,2.08-.87,13.91,13.91,0,0,1,2.59-.23q1.28,0,2.15,0t1.48.1q.61.06,1,.13l.75.13a1,1,0,0,1,.44.17.56.56,0,0,1,.13.43v1.82a.55.55,0,0,1-.17.4.54.54,0,0,1-.4.17h-5.8a2.39,2.39,0,0,0-1.75.51,2.81,2.81,0,0,0-.5,1.93v3.07h7.7a.58.58,0,0,1,.57.57v2a.54.54,0,0,1-.17.4.55.55,0,0,1-.4.17h-7.7v3.66a2.81,2.81,0,0,0,.5,1.93,2.39,2.39,0,0,0,1.75.51h5.8a.58.58,0,0,1,.57.57V169A.56.56,0,0,1,272.36,169.41Z"/><path class="cls-1" d="M298.43,169.41a.3.3,0,0,1-.34.34h-3.47a.38.38,0,0,1-.34-.17,3.46,3.46,0,0,1-.23-.4L290,161.63h-.4c-.38,0-.81,0-1.31,0l-1.22-.07v7.67a.57.57,0,0,1-.16.4.5.5,0,0,1-.38.17h-2.84a.54.54,0,0,1-.4-.17.55.55,0,0,1-.17-.4V149.63a.72.72,0,0,1,.24-.61,1.44,1.44,0,0,1,.67-.24q1.11-.17,2.56-.27t3-.1a14.55,14.55,0,0,1,3.13.33,7.75,7.75,0,0,1,2.61,1.06,5.4,5.4,0,0,1,1.79,2,6.36,6.36,0,0,1,.67,3.05v.26a5.72,5.72,0,0,1-3.86,5.8l4.46,8.3A.39.39,0,0,1,298.43,169.41Zm-4.6-14.58a2.59,2.59,0,0,0-1.07-2.33,5.82,5.82,0,0,0-3.2-.71H289l-.72,0-.7,0-.52,0v6.39h.52l.74,0,.74,0h.53a5.79,5.79,0,0,0,3.24-.71,2.94,2.94,0,0,0,1-2.59Z"/><path class="cls-1" d="M319.85,151.62a.54.54,0,0,1-.4.17h-5.8a2.39,2.39,0,0,0-1.75.51,2.81,2.81,0,0,0-.5,1.93v3.07h7.7a.58.58,0,0,1,.57.57v2a.54.54,0,0,1-.17.4.54.54,0,0,1-.4.17h-7.7v8.7a.58.58,0,0,1-.57.57H308a.58.58,0,0,1-.57-.57V154.24a7.18,7.18,0,0,1,.52-3,4.33,4.33,0,0,1,1.4-1.78,5.16,5.16,0,0,1,2.08-.87,13.9,13.9,0,0,1,2.59-.23q1.28,0,2.15,0t1.48.1q.61.06,1,.13l.75.13a1,1,0,0,1,.44.17.56.56,0,0,1,.13.43v1.82A.55.55,0,0,1,319.85,151.62Z"/><path class="cls-1" d="M344.83,169.27a.45.45,0,0,1-.14.35.53.53,0,0,1-.37.13h-3a.46.46,0,0,1-.34-.14.77.77,0,0,1-.2-.34l-1.31-5.4h-6.54l-1.31,5.4a.77.77,0,0,1-.2.34.47.47,0,0,1-.34.14h-3a.53.53,0,0,1-.37-.13.45.45,0,0,1-.14-.35.1.1,0,0,1,0-.06.2.2,0,0,0,0-.09l4.66-17.81a3.89,3.89,0,0,1,.74-1.56,3.61,3.61,0,0,1,1-.87,3.45,3.45,0,0,1,1.14-.38,6.38,6.38,0,0,1,2.07,0,3.46,3.46,0,0,1,1.14.38,3.65,3.65,0,0,1,1,.87,3.93,3.93,0,0,1,.74,1.56l4.66,17.81a.2.2,0,0,0,0,.09A.12.12,0,0,1,344.83,169.27Zm-8.18-17.08a.86.86,0,0,0-.14-.36.54.54,0,0,0-.62,0,.85.85,0,0,0-.14.36l-2,8.44h5Z"/><path class="cls-1" d="M369.49,169.58a.55.55,0,0,1-.4.17h-2.81a.55.55,0,0,1-.4-.17.55.55,0,0,1-.17-.4v-8.7h-8.07v8.7a.59.59,0,0,1-.57.57h-2.81a.54.54,0,0,1-.4-.17.55.55,0,0,1-.17-.4v-20a.51.51,0,0,1,.17-.38.57.57,0,0,1,.4-.16h2.81a.57.57,0,0,1,.4.16.5.5,0,0,1,.17.38V157h8.07v-7.84a.5.5,0,0,1,.17-.38.57.57,0,0,1,.4-.16h2.81a.58.58,0,0,1,.4.16.5.5,0,0,1,.17.38v20A.55.55,0,0,1,369.49,169.58Z"/><path class="cls-1" d="M395.43,169.41a.3.3,0,0,1-.34.34h-3.47a.38.38,0,0,1-.34-.17,3.3,3.3,0,0,1-.23-.4L387,161.63h-.4c-.38,0-.81,0-1.31,0l-1.22-.07v7.67a.57.57,0,0,1-.16.4.5.5,0,0,1-.38.17h-2.84a.55.55,0,0,1-.4-.17.55.55,0,0,1-.17-.4V149.63a.72.72,0,0,1,.24-.61,1.42,1.42,0,0,1,.67-.24q1.11-.17,2.56-.27c1-.07,2-.1,3-.1a14.57,14.57,0,0,1,3.13.33,7.76,7.76,0,0,1,2.61,1.06,5.41,5.41,0,0,1,1.79,2,6.37,6.37,0,0,1,.67,3.05v.26a6.09,6.09,0,0,1-1,3.69,6.15,6.15,0,0,1-2.82,2.1l4.46,8.3A.4.4,0,0,1,395.43,169.41Zm-4.6-14.58a2.59,2.59,0,0,0-1.07-2.33,5.82,5.82,0,0,0-3.2-.71H386l-.72,0-.7,0-.53,0v6.39h.53l.74,0,.74,0h.53a5.78,5.78,0,0,0,3.24-.71,2.93,2.93,0,0,0,1-2.59Z"/><path class="cls-1" d="M417.24,169.41a.91.91,0,0,1-.44.17l-.75.13c-.28,0-.62.09-1,.13s-.9.07-1.48.1-1.29,0-2.15,0a13.93,13.93,0,0,1-2.59-.23,5.15,5.15,0,0,1-2.08-.87,4.34,4.34,0,0,1-1.4-1.78,7.21,7.21,0,0,1-.51-3v-9.92a7.21,7.21,0,0,1,.51-3,4.35,4.35,0,0,1,1.4-1.78,5.16,5.16,0,0,1,2.08-.87,13.92,13.92,0,0,1,2.59-.23q1.28,0,2.15,0t1.48.1q.61.06,1,.13l.75.13a1,1,0,0,1,.44.17.56.56,0,0,1,.13.43v1.82a.59.59,0,0,1-.57.57H411a2.39,2.39,0,0,0-1.75.51,2.8,2.8,0,0,0-.5,1.93v3.07h7.7a.58.58,0,0,1,.57.57v2a.58.58,0,0,1-.57.57h-7.7v3.66a2.8,2.8,0,0,0,.5,1.93,2.39,2.39,0,0,0,1.75.51h5.8a.59.59,0,0,1,.57.57V169A.56.56,0,0,1,417.24,169.41Z"/><path class="cls-1" d="M443.07,169.43a1.1,1.1,0,0,1-.81.33h-2.87a3.39,3.39,0,0,1-1-.13q-.44-.13-.78-.9l-6.31-13.84c-.08-.15-.16-.23-.26-.23s-.14.08-.14.23v14.29a.58.58,0,0,1-.16.4.5.5,0,0,1-.38.17H428a.55.55,0,0,1-.4-.17.55.55,0,0,1-.17-.4V149.78a1.12,1.12,0,0,1,1.14-1.14h3.07a1.35,1.35,0,0,1,.72.17,1.7,1.7,0,0,1,.53.74l6.62,14.6c.06.15.13.23.23.23s.14-.09.14-.25V149.18a.48.48,0,0,1,.54-.54h2.44a.48.48,0,0,1,.54.54v19.43A1.11,1.11,0,0,1,443.07,169.43Z"/></g></g></svg>